<?xml version="1.0" encoding="utf-8"?>
<!-- Generator: Adobe Illustrator 27.5.0, SVG Export Plug-In . SVG Version: 6.00 Build 0)  -->
<svg version="1.1" id="Layer_1" xmlns="http://www.w3.org/2000/svg" xmlns:xlink="http://www.w3.org/1999/xlink" x="0px" y="0px"
	 viewBox="0 0 323.013 352.997" style="enable-background:new 0 0 323.013 352.997;" xml:space="preserve">
<g>
	<g>
		<g>
			<g>
				<path style="fill:#CBBEC1;" d="M86.632,303.612c-2.5-4.999-3.401-8.397-3.621-10.654c-6.521,5.409-8.227,10.665-13.42,18.654
					c-6.83,10.508-14.711,35.725-14.711,35.725h43.846C101.347,324.741,92.268,314.885,86.632,303.612z"/>
				<path style="fill:#846F75;" d="M98.727,347.703H54.881c-0.116,0-0.225-0.055-0.293-0.149c-0.069-0.093-0.089-0.213-0.055-0.324
					c0.08-0.252,7.974-25.386,14.753-35.815c1.482-2.28,2.654-4.295,3.789-6.243c2.793-4.8,5.001-8.592,9.704-12.493
					c0.103-0.086,0.246-0.109,0.37-0.056c0.125,0.051,0.21,0.167,0.223,0.301c0.271,2.77,1.477,6.312,3.585,10.526l0,0
					c1.028,2.056,2.152,4.031,3.341,6.12c5.129,9.015,10.944,19.233,8.79,37.811C99.067,347.564,98.912,347.703,98.727,347.703z
					 M55.378,346.975h43.024c2.025-18.134-3.444-27.746-8.736-37.046c-1.194-2.099-2.323-4.082-3.359-6.154l0,0
					c-1.982-3.962-3.183-7.357-3.577-10.104c-4.257,3.67-6.374,7.307-9.027,11.866c-1.085,1.865-2.315,3.979-3.807,6.274
					C63.685,321.368,56.499,343.464,55.378,346.975z"/>
			</g>
			<path style="fill:#CBBEC1;" d="M68.789,323.776c2.061-5.376,4.539-10.58,7.341-15.609c2.296-4.12,4.803-8.159,7.5-12.046
				c-0.342-1.241-0.533-2.29-0.619-3.163c-6.521,5.409-8.227,10.665-13.42,18.654c-6.83,10.508-14.711,35.725-14.711,35.725h7.831
				C63.813,339.285,65.881,331.361,68.789,323.776z"/>
			<path style="fill:#CBBEC1;" d="M86.632,303.612c-2.5-4.999-3.401-8.397-3.621-10.654c-3.674,3.047-5.819,6.045-7.92,9.511
				c0.17-0.081,0.337-0.173,0.512-0.238c0.765-0.283,1.585-0.337,2.27,0.171c0.788,0.585,1.274,1.547,1.704,2.403
				c0.875,1.744,1.602,3.558,2.479,5.302c0.893,1.776,1.839,3.525,2.795,5.267c0.969,1.767,1.945,3.532,2.851,5.332
				c0.772,1.535,1.576,3.089,2.063,4.743c0.483,1.639,0.607,3.32,0.631,5.02c0.03,2.116,0.086,4.226,0.039,6.343
				c-0.078,3.517-0.327,7.026-0.68,10.525h8.972C101.347,324.741,92.268,314.885,86.632,303.612z"/>
			<g>
				<path style="fill:#CBBEC1;" d="M228.776,305.333c-4.17,6.951-12.55,24.903-11.439,42.005h43.754c0,0-12.872-31.26-20.752-43.081
					c-2.512-3.767-5.453-7.134-9.032-10.271C231.49,297.176,231.122,301.423,228.776,305.333z"/>
				<path style="fill:#846F75;" d="M261.09,347.703h-43.753c-0.191,0-0.35-0.149-0.363-0.34c-1.067-16.43,6.72-34.267,11.49-42.217
					l0,0c2.353-3.923,2.647-8.222,2.479-11.138c-0.009-0.146,0.071-0.283,0.203-0.348c0.133-0.064,0.291-0.042,0.4,0.053
					c3.562,3.123,6.537,6.506,9.096,10.343c7.809,11.716,20.656,42.831,20.785,43.144c0.046,0.112,0.033,0.24-0.034,0.341
					C261.325,347.642,261.211,347.703,261.09,347.703z M217.679,346.975h42.867c-1.694-4.07-13.284-31.677-20.51-42.515
					c-2.367-3.552-5.099-6.71-8.331-9.632c0.065,2.967-0.391,6.983-2.616,10.693l0,0
					C224.394,313.341,216.751,330.816,217.679,346.975z M228.776,305.333h0.01H228.776z"/>
			</g>
			<path style="fill:#CBBEC1;" d="M231.088,298.73c2.189,2.351,4.388,4.693,6.436,7.171c1.531,1.854,2.973,3.782,4.255,5.818
				c1.29,2.048,2.384,4.24,3.435,6.418c2.163,4.487,4.018,9.115,5.584,13.844c1.663,5.024,2.994,10.161,4.03,15.357h6.263
				c0,0-12.872-31.26-20.752-43.081c-2.512-3.767-5.453-7.134-9.032-10.271C231.388,295.399,231.347,297.024,231.088,298.73z"/>
			<path style="fill:#CBBEC1;" d="M224.466,345.353c0.001-3.654,0.044-7.308,0.17-10.96c0.113-3.264,0.083-6.554,0.778-9.762
				c1.383-6.391,5.583-11.68,9.424-16.798c0.568-0.757,1.177-1.501,1.69-2.296c0.338-0.523,0.62-1.086,0.931-1.625
				c0.361-0.626,0.759-1.352,1.322-1.851c-2.156-2.896-4.609-5.561-7.475-8.074c0.183,3.189-0.185,7.437-2.531,11.346
				c-4.17,6.951-12.55,24.903-11.439,42.005h7.14C224.474,346.676,224.466,346.015,224.466,345.353z"/>
			<g>
				<path style="fill:#CBBEC1;" d="M228.776,305.333c2.346-3.909,2.714-8.157,2.531-11.346
					c-7.649-6.706-18.217-12.361-33.786-18.625c-24.955-3.678-65.179-3.603-81.843-0.357c0,0-11.148,5.085-24.808,12.703
					c-3.273,1.826-5.802,3.545-7.858,5.25c0.22,2.257,1.121,5.655,3.621,10.654c5.636,11.272,14.715,21.128,12.095,43.726h118.61
					C216.226,330.236,224.606,312.283,228.776,305.333z"/>
				<path style="fill:#846F75;" d="M217.337,347.703H98.727c-0.104,0-0.203-0.045-0.272-0.122c-0.069-0.077-0.101-0.18-0.089-0.283
					c2.127-18.342-3.378-28.013-8.7-37.368c-1.194-2.099-2.323-4.082-3.359-6.154c-2.148-4.295-3.379-7.922-3.658-10.782
					c-0.012-0.12,0.037-0.238,0.13-0.315c2.168-1.797,4.756-3.527,7.912-5.287c13.517-7.538,24.723-12.667,24.834-12.717
					c17.372-3.395,57.974-3.218,82.047,0.328c16.372,6.576,26.506,12.166,33.973,18.711c0.074,0.064,0.117,0.155,0.123,0.253
					c0.174,3.018-0.133,7.472-2.581,11.555l0,0c-4.726,7.875-12.443,25.542-11.388,41.794c0.007,0.1-0.028,0.199-0.098,0.273
					C217.534,347.661,217.437,347.703,217.337,347.703z M99.134,346.975H216.95c-0.922-16.323,6.781-33.943,11.514-41.829
					c2.312-3.855,2.636-8.074,2.487-10.986c-7.39-6.445-17.443-11.973-33.566-18.46c-23.929-3.515-64.408-3.693-81.639-0.337
					c-0.029,0.025-11.21,5.142-24.7,12.664c-3.044,1.699-5.549,3.364-7.653,5.089c0.307,2.741,1.505,6.217,3.565,10.335
					c1.028,2.056,2.152,4.031,3.341,6.12C95.391,318.519,101.157,328.655,99.134,346.975z M228.776,305.333h0.01H228.776z"/>
			</g>
			<path style="fill:#CBBEC1;" d="M159.666,347.338c-1.998-0.136-3.996-0.277-5.993-0.434c-6.921-0.544-13.835-1.241-20.69-2.352
				c-5.107-0.828-10.413-1.579-15.268-3.442c-3.714-1.425-6.901-3.69-9.388-6.804c-1.475-1.847-2.681-3.882-3.774-5.973
				c-1.565-2.993-3.16-5.971-4.742-8.956c-4.996-9.421-9.912-18.991-13.051-29.18c-1.411,0.934-2.65,1.85-3.749,2.761
				c0.22,2.257,1.121,5.655,3.621,10.654c5.636,11.272,14.715,21.128,12.095,43.726H159.666z"/>
			<path style="fill:#CBBEC1;" d="M231.306,293.987c-7.649-6.706-18.217-12.361-33.786-18.625
				c-24.955-3.678-65.179-3.603-81.843-0.357c0,0-9.372,4.276-21.457,10.857c3.005-0.953,6.19-1.397,9.24-0.383
				c3.757,1.248,6.752,4.335,9.385,7.159c2.973,3.187,5.688,6.663,8.967,9.552c1.712,1.508,3.65,2.67,5.637,3.78
				c2.359,1.318,4.796,2.494,7.29,3.531c5.085,2.114,10.403,3.643,15.81,4.672c5.917,1.126,12.046,1.82,18.076,1.59
				c5.33-0.203,10.576-1.209,15.689-2.701c5.236-1.528,10.329-3.498,15.444-5.38c2.176-0.801,4.551-1.386,6.886-1.161
				c1.664,0.16,3.25,0.817,4.46,1.984c1.357,1.308,2.177,3.05,2.708,4.834c1.362,4.579,0.993,9.642,0.414,14.315
				c-0.718,5.789-2.018,11.501-3.519,17.133c-0.227,0.853-0.468,1.701-0.706,2.551h7.335c-1.111-17.102,7.269-35.055,11.439-42.005
				C231.122,301.423,231.49,297.176,231.306,293.987z"/>
		</g>
		<g>
			<g>
				<path style="fill:#CBBEC1;" d="M122.743,271.65c-3.554,3.021,1.51,11.462,7.375,16.437c5.864,4.976,17.948,10.929,31.542,9.329
					c13.594-1.599,24.078-8.085,28.077-14.216c3.998-6.131,5.242-9.685,0.622-12.35c-4.62-2.666-10.395-5.42-10.395-5.42l0.06-1.079
					c-1.2-0.185-2.491-0.36-3.986-0.575c-6.911-0.993-30.675-1.302-41.598,0.328l-0.145,2.482
					C134.293,266.585,126.297,268.629,122.743,271.65z"/>
				<path style="fill:#846F75;" d="M157.081,298.047c-11.547,0-21.646-4.971-27.199-9.682c-4.208-3.57-8.682-9.646-8.683-13.873
					c-0.001-1.332,0.439-2.381,1.307-3.12c3.259-2.769,10.012-4.687,11.438-5.071l0.131-2.219c0.01-0.172,0.139-0.313,0.309-0.338
					c10.699-1.596,34.487-1.363,41.703-0.328l1.414,0.201c0.923,0.131,1.77,0.251,2.575,0.374c0.186,0.029,0.318,0.193,0.308,0.38
					l-0.046,0.836c1.102,0.531,6.127,2.978,10.2,5.327c1.703,0.983,2.69,2.125,3.016,3.491c0.581,2.427-0.915,5.386-3.515,9.374
					c-3.883,5.954-14.151,12.709-28.338,14.378C160.142,297.961,158.598,298.047,157.081,298.047z M134.785,264.421l-0.129,2.186
					c-0.008,0.157-0.119,0.292-0.273,0.331c-0.079,0.02-7.956,2.057-11.404,4.989c-0.698,0.593-1.052,1.456-1.051,2.565
					c0.001,3.518,3.623,9.243,8.425,13.318c6.171,5.237,18.068,10.793,31.264,9.245c13.954-1.642,24.025-8.241,27.814-14.054
					c2.427-3.72,3.936-6.641,3.418-8.807c-0.277-1.161-1.152-2.152-2.672-3.029c-4.555-2.629-10.312-5.38-10.37-5.407
					c-0.134-0.063-0.215-0.202-0.206-0.349l0.041-0.749c-0.705-0.106-1.445-0.21-2.239-0.323l-1.417-0.202
					C168.871,263.115,145.566,262.879,134.785,264.421z"/>
			</g>
		</g>
		<g>
			<path style="fill:#CBBEC1;" d="M122.743,271.65c-3.554,3.021,1.51,11.462,7.375,16.437c5.864,4.976,17.948,10.929,31.542,9.329
				c13.594-1.599,24.078-8.085,28.077-14.216c3.998-6.131,5.242-9.685,0.622-12.35c-4.62-2.666-10.395-5.42-10.395-5.42l0.06-1.079
				c-1.2-0.185-2.491-0.36-3.986-0.575c-6.911-0.993-30.675-1.302-41.598,0.328l-0.145,2.482
				C134.293,266.585,126.297,268.629,122.743,271.65z"/>
		</g>
		<g>
			<path style="fill:#FDD4B5;" d="M134.264,257.808c0,0,0,5.806,0,10.322c0,4.516-1.129,6.29-12.257,10.645
				c-11.129,4.355,9.841,25.748,35.805,25.268c23.225-0.43,32.722-12.324,35.805-16.72c2.903-4.14,2.581-5.484-2.419-8.225
				c-5-2.742-9.999-4.193-10.806-8.709c-0.806-4.516,0-12.741,0-12.741S155.554,262.163,134.264,257.808z"/>
			<path style="fill:#B4715A;" d="M156.956,304.414c-19.57,0-36.624-12.277-38.246-20.454c-0.509-2.565,0.615-4.527,3.164-5.525
				c11.093-4.34,12.026-6.074,12.026-10.305v-10.322c0-0.109,0.049-0.213,0.134-0.281c0.084-0.07,0.193-0.095,0.303-0.075
				c20.973,4.289,45.741-0.118,45.988-0.163c0.112-0.019,0.228,0.013,0.312,0.091c0.084,0.077,0.127,0.189,0.116,0.302
				c-0.008,0.082-0.792,8.228-0.004,12.643c0.613,3.429,3.868,5.046,7.636,6.918c0.973,0.483,1.978,0.982,2.988,1.535
				c2.452,1.345,4.04,2.472,4.381,3.938c0.319,1.371-0.467,2.859-1.84,4.816c-7.533,10.741-20.014,16.576-36.096,16.875
				C157.531,304.413,157.242,304.414,156.956,304.414z M134.628,258.252v9.878c0,4.871-1.47,6.672-12.489,10.983
				c-2.215,0.867-3.153,2.493-2.716,4.705c1.599,8.061,18.822,20.251,38.381,19.86c15.839-0.294,28.12-6.022,35.514-16.565
				c1.465-2.09,1.949-3.277,1.727-4.233c-0.243-1.038-1.371-2.009-4.024-3.464c-0.996-0.547-1.995-1.043-2.961-1.522
				c-3.944-1.96-7.351-3.652-8.028-7.442c-0.704-3.943-0.206-10.536-0.047-12.367C176.474,258.668,154.041,262.103,134.628,258.252z
				"/>
		</g>
		<path style="fill:#FDD4B5;" d="M134.264,257.808c0,0,0,5.806,0,10.322c0,4.516-1.129,6.29-12.257,10.645
			c-11.129,4.355,9.841,25.748,35.805,25.268c23.225-0.43,32.722-12.324,35.805-16.72c2.903-4.14,2.581-5.484-2.419-8.225
			c-5-2.742-9.999-4.193-10.806-8.709c-0.806-4.516,0-12.741,0-12.741S155.554,262.163,134.264,257.808z"/>
		<path style="fill:#FDD4B5;" d="M191.197,279.098c-5-2.742-9.999-4.193-10.806-8.709c-0.806-4.516,0-12.741,0-12.741
			s-24.837,4.516-46.127,0.161c0,0,0,3.97,0,7.898c0.681,0.207,1.363,0.41,2.049,0.59c6.085,1.591,12.437,2.221,18.718,2.127
			c5.885-0.087,11.819-0.806,17.477-2.461c0.123-0.036,0.211,0.03,0.246,0.145c0.443,1.457,0.796,2.939,1.026,4.445
			c0.45,2.949,0.45,5.995-0.247,8.907c-0.636,2.654-1.919,5.037-3.471,7.26c-2.121,3.039-4.816,5.608-7.979,7.542
			c-6.57,4.017-14.497,5.022-22.063,4.675c-2.035-0.093-4.063-0.289-6.082-0.557c6.639,3.416,14.962,5.829,23.874,5.663
			c23.225-0.43,32.722-12.324,35.805-16.72C196.519,283.183,196.197,281.839,191.197,279.098z"/>
		<g>
			<path style="fill:#CBBEC1;" d="M193.778,268.937c-6.422-3.148-9.48-3.929-13.755-4.586l-0.06,1.079c0,0,5.775,2.754,10.395,5.42
				c4.62,2.665,3.376,6.219-0.622,12.35c-3.998,6.131-14.483,12.617-28.077,14.216c-13.594,1.599-25.678-4.354-31.542-9.329
				c-5.864-4.976-10.929-13.416-7.375-16.437s11.55-5.064,11.55-5.064l0.145-2.482c0,0-11.787,2.414-16.625,6.769
				c-4.516,4.193-4.193,5.806-2.419,11.129c1.774,5.322,13.064,22.902,39.353,26.128c19.193,0.968,38.869-11.451,43.224-22.58
				C200.068,278.614,202.003,272.969,193.778,268.937z"/>
			<path style="fill:#846F75;" d="M156.872,308.545c-0.719,0-1.432-0.018-2.143-0.053c-26.293-3.225-37.741-20.559-39.68-26.378
				c-1.813-5.436-2.129-7.195,2.517-11.509c4.86-4.375,16.315-6.759,16.8-6.858c0.11-0.021,0.226,0.007,0.311,0.081
				c0.086,0.074,0.132,0.183,0.125,0.297l-0.146,2.482c-0.008,0.157-0.119,0.292-0.273,0.331c-0.079,0.02-7.956,2.057-11.404,4.989
				c-0.698,0.593-1.052,1.456-1.051,2.565c0.001,3.518,3.623,9.243,8.425,13.318c6.171,5.237,18.068,10.793,31.264,9.245
				c13.954-1.642,24.025-8.241,27.814-14.054c2.427-3.72,3.936-6.641,3.418-8.807c-0.277-1.161-1.152-2.152-2.672-3.029
				c-4.555-2.628-10.312-5.38-10.37-5.407c-0.134-0.063-0.215-0.202-0.206-0.349l0.06-1.079c0.006-0.102,0.054-0.198,0.134-0.262
				c0.08-0.064,0.185-0.095,0.284-0.078c4.47,0.688,7.533,1.518,13.86,4.619l0,0c8.312,4.075,6.558,9.862,4.527,16.564l-0.145,0.48
				c-2.199,5.624-8.259,11.61-16.219,16.038C174.098,306.145,165.221,308.545,156.872,308.545z M134.048,264.561
				c-2.222,0.5-11.821,2.828-15.991,6.581c-4.339,4.031-4.088,5.436-2.318,10.744c0.823,2.469,3.935,8.13,10.376,13.69
				c5.344,4.612,14.658,10.472,28.676,12.192c18.811,0.948,38.491-11.237,42.84-22.352l0.136-0.454
				c2.015-6.646,3.604-11.897-4.151-15.699l0,0c-6.053-2.967-9.07-3.826-13.254-4.491l-0.024,0.435
				c1.102,0.531,6.127,2.978,10.2,5.327c1.703,0.983,2.69,2.125,3.016,3.491c0.581,2.427-0.915,5.386-3.515,9.374
				c-3.883,5.954-14.151,12.709-28.338,14.378c-13.441,1.58-25.537-4.083-31.82-9.412c-4.208-3.57-8.682-9.646-8.683-13.873
				c-0.001-1.332,0.439-2.381,1.307-3.12c3.259-2.769,10.012-4.687,11.438-5.071L134.048,264.561z"/>
		</g>
		<path style="fill:#CBBEC1;" d="M193.778,268.937c-6.422-3.148-9.48-3.929-13.755-4.586l-0.06,1.079c0,0,5.775,2.754,10.395,5.42
			c4.62,2.665,3.376,6.219-0.622,12.35c-3.998,6.131-14.483,12.617-28.077,14.216c-13.594,1.599-25.678-4.354-31.542-9.329
			c-5.864-4.976-10.929-13.416-7.375-16.437s11.55-5.064,11.55-5.064l0.145-2.482c0,0-11.787,2.414-16.625,6.769
			c-4.217,3.916-4.214,5.584-2.75,10.122c0.5-0.256,1.024-0.454,1.58-0.553c1.078-0.193,1.91,0.106,2.668,0.874
			c0.883,0.893,1.526,2.028,2.157,3.104c0.573,0.977,1.084,2.019,1.754,2.936c0.891,1.217,2.058,2.312,3.193,3.299
			c2.315,2.014,4.98,3.544,7.802,4.731c3.421,1.439,7.025,2.496,10.635,3.339c3.675,0.858,7.415,1.44,11.183,1.67
			c3.75,0.229,7.524,0.106,11.246-0.414c3.676-0.513,7.473-1.338,10.915-2.758c2.499-1.031,4.598-2.949,6.764-4.522
			c1.92-1.394,4.26-3.095,6.754-3.021c0.208,0.006,0.355,0.191,0.406,0.386c0.314,1.197,0.363,2.384,0.239,3.555
			c2.612-2.629,4.561-5.387,5.611-8.072C200.068,278.614,202.003,272.969,193.778,268.937z"/>
		<path style="fill:#CBBEC1;" d="M165.431,304.654c-3.739,0.352-7.437,0.717-11.2,0.525c-3.794-0.194-7.576-0.825-11.219-1.904
			c-6.533-1.935-12.563-5.383-17.541-10.036c-2.682-2.508-5.099-5.309-7.115-8.383c-0.036-0.055-0.204,0.115-0.172,0.176
			c3.14,5.927,7.903,10.803,13.576,14.354c6.149,3.85,13.202,6.083,20.42,6.685c4.282,0.357,8.759,0.282,12.951-0.74
			C165.35,305.277,165.841,304.616,165.431,304.654z"/>
	</g>
	<g>
		<g>
			<g>
				<g>
					<path style="fill:#DA3210;" d="M237.265,188.148c0,0,45.417-30.053,38.928-76.139
						C235.659,109.646,213.505,126.468,237.265,188.148z"/>
					<path style="fill:#A01B05;" d="M237.265,188.513c-0.037,0-0.075-0.006-0.111-0.017c-0.105-0.034-0.189-0.113-0.228-0.216
						c-11.672-30.3-12.94-51.065-3.873-63.482c7.383-10.112,21.504-14.418,43.161-13.152c0.173,0.009,0.316,0.14,0.339,0.312
						c6.446,45.784-38.631,76.193-39.087,76.494C237.406,188.492,237.337,188.513,237.265,188.513z M269.142,112.158
						c-17.453,0-29.099,4.3-35.502,13.068c-8.865,12.143-7.624,32.542,3.799,62.36c4.331-3.03,44.276-32.295,38.434-75.233
						C273.542,112.224,271.296,112.158,269.142,112.158z"/>
				</g>
				<path style="fill:#DA3210;" d="M237.265,188.148c0,0,45.417-30.053,38.928-76.139
					C235.659,109.646,213.505,126.468,237.265,188.148z"/>
				<path style="fill:#DA3210;" d="M238.531,184.913c3.716-5.758,6.897-11.911,9.855-18.087c2.769-5.78,5.663-11.82,5.536-18.38
					c-0.004-0.215,0.475-0.999,0.643-0.526c1.316,3.719,1.16,7.659,1.413,11.54c1.059-1.84,1.686-4.031,2.186-6.052
					c0.14-0.567,0.597,0.079,0.652,0.328c0.503,2.257,1.402,4.364,2.372,6.455c0.436,0.942,0.858,1.872,1.24,2.818
					c9.17-12.948,16.672-30.365,13.766-50.999c-40.378-2.354-62.511,14.336-39.193,75.436
					C237.505,186.592,238,185.734,238.531,184.913z"/>
				<g>
					<path style="fill:#B4715A;" d="M233.19,203.985c0.389-2.713,0.69-5.451,1.341-8.096c0.664-2.692,1.58-5.294,2.734-7.741
						c1.156-2.449,2.563-4.72,4.01-6.937c0.746-1.143,1.554-2.198,2.469-3.156c0.75-0.785,1.676-1.304,2.3-2.252
						c0.174-0.264,0.038-0.693-0.224-0.794c-1.36-0.523-2.687-0.377-3.924,0.169c0.023-0.025,0.045-0.049,0.067-0.075
						c0.097-0.13,0.183-0.269,0.282-0.395c2.945-3.741,7.128-6.485,11.585-6.235c1.902,0.107,3.783,0.726,5.361,2.028
						c1.453,1.199,2.573,2.873,3.38,4.719c0.848,1.939,1.391,4.04,1.754,6.168c0.38,2.222,0.62,4.511,0.608,6.774
						c-0.031,5.569-1.516,11.116-4.008,15.797c-2.576,4.837-6.323,8.648-10.709,11.073c-2.038,1.127-4.188,2-6.398,2.534
						c-2.12,0.512-4.389,0.767-6.532,0.212c-2.035-0.528-3.884-1.859-4.825-4.117c-0.353-0.848-0.601-1.766-0.776-2.713
						C232.435,208.721,232.849,206.357,233.19,203.985z"/>
					<path style="fill:#FDD4B5;" d="M234.537,215.466c1.617,1.613,3.924,1.897,5.947,1.789c2.084-0.111,4.147-0.658,6.121-1.414
						c4.47-1.714,8.542-4.788,11.581-9.015c2.898-4.029,4.858-9.06,5.627-14.278c0.663-4.496,0.351-9.241-0.752-13.635
						c-0.97-3.863-2.846-7.655-6.228-9.085c-4.101-1.734-8.662,0.128-11.912,3.148c-0.01,0.01-0.02,0.02-0.03,0.03
						c0.044,0.096,0.045,0.199-0.047,0.287c-1.078,1.044-2.082,2.178-3.027,3.374c-0.27,0.406-0.527,0.824-0.775,1.248
						c-0.3,0.362-0.586,0.739-0.862,1.127c-1.12,1.413-2.092,2.992-2.818,4.723c-2.525,5.093-4.168,10.825-4.89,16.656
						c-0.359,2.895-0.444,5.822-0.146,8.738C232.56,211.426,232.974,213.906,234.537,215.466z"/>
					<path style="fill:#FDD4B5;" d="M262.719,192.335c0.305-4.139-0.072-8.544-1.78-12.271c-1.982-4.327-5.359-7.876-9.608-8.434
						c-2.016-0.265-3.997,0.121-5.886,0.882c3.205-2.74,7.503-4.329,11.389-2.686c3.382,1.43,5.258,5.222,6.228,9.085
						c1.103,4.395,1.414,9.139,0.752,13.635c-0.559,3.79-1.753,7.475-3.471,10.756C261.6,199.823,262.44,196.111,262.719,192.335z"
						/>
					<path style="fill:#FDD4B5;" d="M232.474,200.422c0.722-5.831,2.365-11.564,4.89-16.657c0.726-1.732,1.698-3.311,2.818-4.723
						c0.276-0.388,0.562-0.765,0.862-1.127c0.248-0.424,0.504-0.842,0.775-1.248c0.945-1.196,1.948-2.331,3.027-3.374
						c0.092-0.089,0.092-0.191,0.047-0.287c0.01-0.01,0.019-0.02,0.03-0.03c0.665-0.618,1.386-1.183,2.145-1.683
						c-0.708,0.969-1.342,2.008-1.891,3.069c-1.387,2.682-2.53,5.955-2.161,9.174c0.073,0.639,0.775,0.555,0.965,0.085
						c1.352-3.355,3.942-6.017,7.167-6.388c2.422-0.278,4.828,0.949,6.269,3.292c1.895,3.081,1.848,7.328,1.185,10.86
						c-0.707,3.766-2.274,7.489-4.841,9.949c-2.653,2.543-6.009,2.934-9.175,1.432c-0.149-0.07-0.384-0.038-0.495,0.108
						c-1.68,2.215-2.757,6.032-1.304,8.791c0.979,1.86,2.519,3.117,4.359,3.429c0.345,0.058,0.691,0.075,1.037,0.072
						c-0.52,0.242-1.045,0.469-1.578,0.673c-1.974,0.757-4.037,1.303-6.121,1.414c-2.023,0.108-4.33-0.175-5.947-1.789
						c-1.563-1.56-1.977-4.04-2.209-6.307C232.03,206.244,232.115,203.316,232.474,200.422z"/>
					<path style="fill:#B4715A;" d="M241.257,205.495c-0.159-0.72-0.234-1.439-0.103-2.122c0.095-0.241,0.198-0.478,0.317-0.707
						c0.325-0.625,0.727-1.163,1.158-1.668c-0.012-0.021-0.023-0.043-0.036-0.064c0.166-0.182,0.335-0.362,0.505-0.54
						c0.016,0.008,0.032,0.014,0.047,0.023c0.676-0.731,1.384-1.427,1.978-2.26c0.629-0.881,1.168-1.951,0.677-3.095
						c-0.444-1.034-1.125-1.929-1.639-2.917c-0.991-1.901-1.407-4.054-1.087-6.25c0.568-3.9,3.007-6.841,6.129-8.076
						c2.868-1.135,6.317-1.025,8.388,1.941c1.1,1.576,1.814,3.572,2.171,5.551c0.339,1.874,0.405,3.883-0.245,5.665
						c-0.081,0.22-0.45,0.041-0.389-0.186c0.421-1.556,0.297-3.334,0.007-4.918c-0.321-1.751-0.879-3.469-1.741-4.96
						c-0.783-1.355-1.785-2.357-3.167-2.703c-1.473-0.368-3.025-0.107-4.435,0.43c-2.985,1.137-5.37,4.064-5.796,7.811
						c-0.247,2.174,0.266,4.135,1.29,5.955c0.506,0.9,1.149,1.759,1.508,2.76c0.32,0.891,0.189,1.766-0.212,2.583
						c-0.685,1.397-1.757,2.365-2.773,3.402c0.605,0.597,1.354,0.942,2.129,1.185c0.991,0.311,2.045,0.525,3.069,0.532
						c2.289,0.017,4.86-1.113,5.933-3.623c0.049-0.115,0.256-0.018,0.212,0.102c-1.031,2.828-3.544,4.254-6.076,4.308
						c-1.18,0.025-2.412-0.232-3.544-0.62c-0.744-0.255-1.639-0.638-2.303-1.265c-0.222,0.246-0.439,0.499-0.641,0.769
						c-0.551,0.737-0.972,1.574-1.229,2.512C241.316,205.197,241.289,205.347,241.257,205.495z"/>
				</g>
				<g>
					<path style="fill:#B4715A;" d="M77.957,203.985c-0.389-2.713-0.69-5.451-1.341-8.096c-0.664-2.692-1.58-5.294-2.734-7.741
						c-1.156-2.449-2.563-4.72-4.01-6.937c-0.746-1.143-1.554-2.198-2.469-3.156c-0.75-0.785-1.676-1.304-2.3-2.252
						c-0.174-0.264-0.039-0.693,0.224-0.794c1.36-0.523,2.687-0.377,3.924,0.169c-0.023-0.025-0.045-0.049-0.067-0.075
						c-0.097-0.13-0.183-0.269-0.282-0.395c-2.945-3.741-7.128-6.485-11.585-6.235c-1.902,0.107-3.783,0.726-5.361,2.028
						c-1.453,1.199-2.573,2.873-3.38,4.719c-0.848,1.939-1.391,4.04-1.754,6.168c-0.38,2.222-0.62,4.511-0.608,6.774
						c0.031,5.569,1.516,11.116,4.008,15.797c2.576,4.837,6.323,8.648,10.709,11.073c2.038,1.127,4.188,2,6.398,2.534
						c2.12,0.512,4.389,0.767,6.532,0.212c2.035-0.528,3.884-1.859,4.825-4.117c0.353-0.848,0.601-1.766,0.776-2.713
						C78.711,208.721,78.297,206.357,77.957,203.985z"/>
					<path style="fill:#FDD4B5;" d="M76.609,215.466c-1.617,1.613-3.924,1.897-5.947,1.789c-2.084-0.111-4.147-0.658-6.121-1.414
						c-4.471-1.714-8.542-4.788-11.582-9.015c-2.898-4.029-4.858-9.06-5.627-14.278c-0.663-4.496-0.351-9.241,0.752-13.635
						c0.97-3.863,2.846-7.655,6.228-9.085c4.101-1.734,8.662,0.128,11.912,3.148c0.01,0.01,0.02,0.02,0.03,0.03
						c-0.044,0.096-0.045,0.199,0.047,0.287c1.078,1.044,2.082,2.178,3.027,3.374c0.27,0.406,0.527,0.824,0.775,1.248
						c0.3,0.362,0.586,0.739,0.862,1.127c1.12,1.413,2.092,2.992,2.818,4.723c2.525,5.093,4.168,10.825,4.89,16.656
						c0.359,2.895,0.444,5.822,0.146,8.738C78.586,211.426,78.172,213.906,76.609,215.466z"/>
					<path style="fill:#FDD4B5;" d="M48.427,192.335c-0.305-4.139,0.073-8.544,1.78-12.271c1.982-4.327,5.358-7.876,9.608-8.434
						c2.016-0.265,3.997,0.121,5.886,0.882c-3.205-2.74-7.503-4.329-11.389-2.686c-3.382,1.43-5.258,5.222-6.228,9.085
						c-1.103,4.395-1.414,9.139-0.752,13.635c0.559,3.79,1.753,7.475,3.471,10.756C49.546,199.823,48.706,196.111,48.427,192.335z"
						/>
					<path style="fill:#FDD4B5;" d="M78.672,200.422c-0.722-5.831-2.365-11.564-4.89-16.657c-0.726-1.732-1.698-3.311-2.818-4.723
						c-0.276-0.388-0.562-0.765-0.862-1.127c-0.248-0.424-0.504-0.842-0.775-1.248c-0.944-1.196-1.948-2.331-3.026-3.374
						c-0.092-0.089-0.092-0.191-0.047-0.287c-0.01-0.01-0.019-0.02-0.03-0.03c-0.664-0.618-1.386-1.183-2.145-1.683
						c0.708,0.969,1.342,2.008,1.891,3.069c1.387,2.682,2.53,5.955,2.161,9.174c-0.073,0.639-0.775,0.555-0.965,0.085
						c-1.352-3.355-3.941-6.017-7.167-6.388c-2.422-0.278-4.828,0.949-6.269,3.292c-1.895,3.081-1.848,7.328-1.185,10.86
						c0.707,3.766,2.274,7.489,4.841,9.949c2.653,2.543,6.009,2.934,9.176,1.432c0.149-0.07,0.384-0.038,0.495,0.108
						c1.681,2.215,2.757,6.032,1.304,8.791c-0.979,1.86-2.519,3.117-4.359,3.429c-0.345,0.058-0.691,0.075-1.037,0.072
						c0.52,0.242,1.045,0.469,1.578,0.673c1.974,0.757,4.037,1.303,6.121,1.414c2.023,0.108,4.33-0.175,5.947-1.789
						c1.563-1.56,1.977-4.04,2.209-6.307C79.117,206.244,79.031,203.316,78.672,200.422z"/>
					<path style="fill:#B4715A;" d="M69.889,205.495c0.159-0.72,0.234-1.439,0.103-2.122c-0.095-0.241-0.198-0.478-0.317-0.707
						c-0.325-0.625-0.727-1.163-1.158-1.668c0.011-0.021,0.023-0.043,0.036-0.064c-0.166-0.182-0.334-0.362-0.505-0.54
						c-0.016,0.008-0.032,0.014-0.047,0.023c-0.676-0.731-1.384-1.427-1.978-2.26c-0.629-0.881-1.168-1.951-0.677-3.095
						c0.444-1.034,1.124-1.929,1.639-2.917c0.991-1.901,1.407-4.054,1.087-6.25c-0.568-3.9-3.007-6.841-6.129-8.076
						c-2.868-1.135-6.317-1.025-8.388,1.941c-1.1,1.576-1.814,3.572-2.171,5.551c-0.339,1.874-0.405,3.883,0.245,5.665
						c0.081,0.22,0.45,0.041,0.389-0.186c-0.421-1.556-0.297-3.334-0.007-4.918c0.321-1.751,0.88-3.469,1.741-4.96
						c0.783-1.355,1.784-2.357,3.167-2.703c1.473-0.368,3.025-0.107,4.435,0.43c2.985,1.137,5.37,4.064,5.797,7.811
						c0.247,2.174-0.266,4.135-1.29,5.955c-0.506,0.9-1.149,1.759-1.508,2.76c-0.32,0.891-0.189,1.766,0.212,2.583
						c0.685,1.397,1.757,2.365,2.773,3.402c-0.605,0.597-1.354,0.942-2.129,1.185c-0.991,0.311-2.045,0.525-3.069,0.532
						c-2.289,0.017-4.86-1.113-5.933-3.623c-0.049-0.115-0.256-0.018-0.212,0.102c1.031,2.828,3.544,4.254,6.076,4.308
						c1.18,0.025,2.412-0.232,3.544-0.62c0.744-0.255,1.639-0.638,2.303-1.265c0.222,0.246,0.439,0.499,0.641,0.769
						c0.551,0.737,0.972,1.574,1.229,2.512C69.83,205.197,69.858,205.347,69.889,205.495z"/>
				</g>
				<g>
					<path style="fill:#FDD4B5;" d="M69.889,131.046c0,0-2.29,41.602,2.672,74.044s44.655,57.632,82.441,57.632
						s83.967-23.664,85.112-77.097c1.145-53.434,3.435-126.333-73.662-132.439C89.354,47.079,70.289,105.128,69.889,131.046z"/>
					<radialGradient id="SVGID_1_" cx="114.0984" cy="210.8371" r="26.5787" gradientUnits="userSpaceOnUse">
						<stop  offset="0" style="stop-color:#F37422"/>
						<stop  offset="1" style="stop-color:#FFFFFF"/>
					</radialGradient>
					<path style="opacity:0.51;fill:url(#SVGID_1_);" d="M127.135,188.439c-1.3-0.519-2.646-0.882-4.014-1.106
						c0.782,0.308,1.553,0.646,2.31,1.018c0.403,0.198,0.049,0.8-0.352,0.603c-1.409-0.693-2.865-1.283-4.365-1.748
						c-0.15-0.046-0.301-0.086-0.451-0.13c-0.702-0.011-1.405,0.011-2.108,0.074c-0.378,0.034-0.43-0.456-0.171-0.633
						c-4.766-0.956-9.729-0.635-14.342,0.993c-5.041,1.779-9.581,5.055-12.818,9.315c-3.071,4.042-4.988,9-4.92,14.113
						c0.075,5.648,2.656,10.847,6.563,14.841c4.181,4.274,9.537,7.209,15.302,8.715c5.437,1.421,11.273,1.647,16.753,0.319
						c5.241-1.27,10.146-4.069,13.377-8.46c3.518-4.781,4.901-10.941,4.232-16.795c-0.686-6.012-3.414-11.878-7.681-16.182
						C132.368,191.275,129.889,189.537,127.135,188.439z"/>
					
						<radialGradient id="SVGID_00000078015808985372555720000004967906981803725984_" cx="193.2877" cy="210.8371" r="26.5787" gradientUnits="userSpaceOnUse">
						<stop  offset="0" style="stop-color:#F37422"/>
						<stop  offset="1" style="stop-color:#FFFFFF"/>
					</radialGradient>
					<path style="opacity:0.51;fill:url(#SVGID_00000078015808985372555720000004967906981803725984_);" d="M206.324,188.439
						c-1.3-0.519-2.646-0.882-4.014-1.106c0.781,0.308,1.553,0.646,2.31,1.018c0.403,0.198,0.049,0.8-0.352,0.603
						c-1.409-0.693-2.865-1.283-4.365-1.748c-0.15-0.046-0.301-0.086-0.451-0.13c-0.702-0.011-1.405,0.011-2.108,0.074
						c-0.378,0.034-0.43-0.456-0.171-0.633c-4.766-0.956-9.729-0.635-14.342,0.993c-5.041,1.779-9.581,5.055-12.818,9.315
						c-3.071,4.042-4.988,9-4.92,14.113c0.075,5.648,2.656,10.847,6.563,14.841c4.181,4.274,9.537,7.209,15.302,8.715
						c5.437,1.421,11.273,1.647,16.753,0.319c5.241-1.27,10.146-4.069,13.377-8.46c3.519-4.781,4.901-10.941,4.232-16.795
						c-0.686-6.012-3.414-11.878-7.681-16.182C211.557,191.275,209.078,189.537,206.324,188.439z"/>
					<path style="fill:#B4715A;" d="M155.002,263.086c-18.486,0-38.071-6.092-53.734-16.713
						c-16.376-11.105-26.7-25.747-29.068-41.228c-4.889-31.972-2.716-73.352-2.675-74.111c0.248-15.981,7.26-40.754,26.206-57.99
						c17.328-15.764,41.136-22.567,70.748-20.221c76.729,6.078,75.169,78.47,74.03,131.328l-0.032,1.482
						c-0.66,30.793-16.112,49.009-28.959,58.868C196.129,256.311,175.528,263.086,155.002,263.086z M155.367,53.099
						c-24.322,0-44.18,6.868-59.146,20.483c-18.776,17.081-25.723,41.634-25.967,57.47c0,0.005,0,0.01-0.001,0.014
						c-0.023,0.416-2.23,41.937,2.668,73.969c2.336,15.278,12.549,29.745,28.756,40.736c15.546,10.541,34.981,16.588,53.325,16.588
						c20.369,0,40.807-6.72,56.074-18.436c12.72-9.762,28.02-27.802,28.674-58.306l0.032-1.482
						c0.583-27.095,1.246-57.805-7.751-83.064c-10.439-29.308-31.899-44.853-65.609-47.523
						C162.643,53.249,158.955,53.099,155.367,53.099z M69.889,131.046h0.009H69.889z"/>
				</g>
				<g>
					<path style="fill:#FDD4B5;" d="M166.452,53.186c-77.097-6.107-96.163,51.942-96.562,77.861c0,0-1.572,28.57,0.712,56.82
						c0.212-12.843,1.877-28.138,6.065-46.035c16.631,0.95,42.764-16.155,42.764-16.155s-0.95,4.752-6.177,8.078
						c19.957-2.376,52.742-15.68,68.422-37.537c8.078-10.929,32.19,18.151,22.747,59.442c10.039,0.428,17.072-4.174,17.072-4.174
						s1.264,2.261,0.625,10.044c8.078-0.475,11.348-2.591,11.348-2.591s24.708,81.252-60.82,98.357
						c-19.892,4.42-47.6-0.625-79.676-17.8c16.127,14.199,39.416,23.227,62.029,23.227c37.785,0,83.967-23.663,85.112-77.097
						C241.259,132.191,243.549,59.292,166.452,53.186z"/>
				</g>
				<g>
					<path style="fill:#DA3210;" d="M88.281,151.899c-0.107,0.423,0.601,1.206,0.928,0.678c2.148-3.46,5.1-6.324,8.673-8.29
						c6.327-3.482,13.676-3.555,20.483-1.575c6.655,1.936,14.078,5.674,17.494,12.021c0.181,0.336,0.873,0.648,0.882,0.029
						c0.023-1.654-0.305-3.346-0.887-4.953c-0.974-4.091-3.277-7.802-6.484-10.536c-6.254-5.334-15.233-6.999-23.144-5.129
						C97.407,136.229,90.499,143.139,88.281,151.899z"/>
					<path style="fill:#DA3210;" d="M133.759,145.514c-1.245-2.51-3.316-4.635-5.497-6.357c-2.21-1.746-4.717-3.128-7.377-4.055
						c-5.451-1.899-11.463-1.678-16.838,0.381c-3.119,1.195-5.907,2.967-8.282,5.309c-0.09,0.088-0.104,0.272,0.044,0.14
						c4.304-3.82,9.913-6.132,15.665-6.36c5.586-0.221,11.153,1.604,15.609,4.959c2.434,1.832,4.312,4.101,6.175,6.484
						C133.404,146.203,133.851,145.699,133.759,145.514z"/>
					<path style="fill:#DA3210;" d="M134.916,150.624c-1.113-0.988-2.031-2.17-3.037-3.262c-3.509-3.807-7.835-6.792-12.822-8.294
						c-4.364-1.315-9.001-1.31-13.386-0.093c-4.496,1.248-8.595,3.67-12.146,6.665c-1.775,1.497-3.366,3.141-4.844,4.883
						c-0.144,0.454-0.282,0.912-0.4,1.377c-0.107,0.423,0.601,1.206,0.928,0.678c2.148-3.46,5.1-6.324,8.673-8.291
						c6.327-3.482,13.676-3.555,20.483-1.575c6.655,1.936,14.078,5.674,17.494,12.021c0.181,0.336,0.873,0.648,0.882,0.029
						c0.013-0.981-0.109-1.973-0.322-2.955C135.901,151.437,135.394,151.048,134.916,150.624z"/>
					<path style="fill:#A01B05;" d="M136.462,155.482c-0.368,0-0.761-0.277-0.922-0.575c-3.785-7.034-12.448-10.441-17.275-11.845
						c-5.195-1.511-12.918-2.469-20.207,1.544c-3.449,1.899-6.403,4.722-8.54,8.165c-0.198,0.317-0.548,0.426-0.889,0.284
						c-0.424-0.181-0.823-0.763-0.701-1.244c2.277-8.998,9.257-15.903,18.215-18.021c8.38-1.98,17.374,0.013,23.463,5.207
						c3.276,2.793,5.62,6.602,6.602,10.729c0.614,1.687,0.92,3.396,0.897,5.041c-0.008,0.537-0.371,0.668-0.483,0.695
						C136.571,155.475,136.517,155.482,136.462,155.482z M109.511,141.028c3.353,0,6.444,0.604,8.957,1.335
						c4.937,1.437,13.803,4.932,17.713,12.199c0.034,0.063,0.12,0.128,0.192,0.164c0.016-1.587-0.276-3.179-0.86-4.791
						c-0.959-4.017-3.22-7.691-6.378-10.384c-5.916-5.045-14.658-6.984-22.824-5.052c-8.692,2.055-15.465,8.757-17.676,17.489
						c-0.004,0.03,0.022,0.13,0.101,0.238c0.08,0.108,0.168,0.161,0.196,0.165c2.171-3.552,5.217-6.463,8.775-8.421
						C101.674,141.786,105.757,141.028,109.511,141.028z M88.281,151.9h0.009H88.281z"/>
				</g>
				<g>
					<path style="fill:#DA3210;" d="M203.953,134.144c-7.911-1.87-16.89-0.205-23.144,5.129c-3.207,2.735-5.51,6.446-6.484,10.536
						c-0.582,1.606-0.91,3.298-0.887,4.953c0.009,0.619,0.701,0.307,0.882-0.029c3.416-6.347,10.839-10.086,17.494-12.021
						c6.807-1.98,14.156-1.907,20.483,1.575c3.573,1.967,6.525,4.831,8.673,8.29c0.327,0.527,1.035-0.256,0.928-0.678
						C219.681,143.139,212.773,136.229,203.953,134.144z"/>
					<path style="fill:#DA3210;" d="M176.793,145.19c1.245-2.509,3.316-4.634,5.497-6.357c2.21-1.746,4.717-3.128,7.377-4.055
						c5.451-1.899,11.463-1.678,16.838,0.381c3.119,1.195,5.907,2.967,8.282,5.309c0.09,0.088,0.104,0.272-0.044,0.14
						c-4.304-3.82-9.913-6.132-15.665-6.36c-5.586-0.221-11.153,1.604-15.609,4.959c-2.434,1.832-4.312,4.101-6.175,6.484
						C177.148,145.879,176.701,145.375,176.793,145.19z"/>
					<path style="fill:#DA3210;" d="M220.485,147.883c-6.451-6.251-14.977-11.269-24.083-10.725
						c-5.39,0.322-10.435,2.866-14.36,6.507c-2.005,1.86-3.732,3.997-5.231,6.279c-1.094,1.665-2.04,3.404-2.975,5.154
						c0.191-0.049,0.396-0.203,0.483-0.365c3.416-6.347,10.839-10.086,17.494-12.021c6.807-1.98,14.156-1.907,20.483,1.575
						c3.573,1.967,6.525,4.831,8.673,8.291c0.327,0.527,1.035-0.256,0.928-0.678C221.546,150.508,221.063,149.17,220.485,147.883z"
						/>
					<path style="fill:#A01B05;" d="M173.718,155.482c-0.055,0-0.109-0.007-0.161-0.019c-0.112-0.027-0.476-0.158-0.483-0.695
						c-0.023-1.644,0.283-3.353,0.908-5.081c0.971-4.087,3.315-7.896,6.59-10.689c6.089-5.192,15.08-7.188,23.464-5.207l0,0
						c8.957,2.118,15.937,9.023,18.214,18.021c0.122,0.48-0.277,1.063-0.701,1.244c-0.344,0.142-0.691,0.033-0.889-0.284
						c-2.136-3.442-5.089-6.265-8.54-8.165c-7.291-4.013-15.012-3.055-20.206-1.544c-4.826,1.404-13.49,4.81-17.275,11.845
						C174.479,155.205,174.087,155.482,173.718,155.482z M197.544,133.764c-6.13,0-12.097,2.033-16.499,5.787
						c-3.157,2.693-5.418,6.367-6.366,10.344c-0.603,1.674-0.895,3.287-0.877,4.834c0.073-0.035,0.163-0.101,0.198-0.167
						c3.911-7.268,12.777-10.763,17.713-12.199c5.326-1.548,13.253-2.527,20.759,1.607c3.56,1.959,6.605,4.87,8.807,8.416
						c0.002-0.002,0.086-0.054,0.165-0.16c0.081-0.109,0.106-0.209,0.101-0.239c-2.21-8.731-8.984-15.434-17.675-17.488l0,0
						C201.78,134.005,199.652,133.764,197.544,133.764z"/>
				</g>
				<g>
					<path style="fill:#DA3210;" d="M182.744,79.857c0,0,11.67-7.455,23.202,3.678c11.531,11.134,15.11,39.963,5.964,54.675
						c5.169-2.187,6.959-8.947,6.959-8.947s-0.994,9.941-8.35,21.075c0,0,24.064-4.997,23.203-43.06
						c3.226,27.096-9.247,51.826-9.247,51.826s13.01-3.871,18.494-20.644c0,0-6.864,29.233-2.787,40.583
						c9.561-16.391,12.786-30.261,12.786-44.776c8.387,33.869,33.224,31.289,42.579,21.612
						c-24.515-7.742-33.547-16.773-33.869-35.482c7.742,16.128,18.064,18.386,22.902,15.16
						c-14.193-6.451-14.193-16.128-14.193-16.128s14.193,16.451,28.386,8.064c-11.612-0.323-18.064-7.419-22.579-15.483
						c12.903,10.645,30.966,8.064,41.611-5.484c-14.515,9.354-30.321,0.645-37.417-14.193c12.257,12.903,26.45,7.742,35.482-0.968
						c0,0-20.967,10.322-39.03-17.096s-40.321-52.901-76.125-38.708c0,0-49.352-63.545-136.768-5.484
						c11.29-4.838,27.741-14.838,51.288-16.128C84.267,23.626,65.881,40.077,52.01,57.173c8.387-7.097,19.999-8.387,19.999-8.387
						c-1.29,0.645-11.935,7.096-25.16,19.676c-13.225,12.58-32.257,19.676-36.127-0.968c-5.806,13.548,4.193,39.353,28.063,22.58
						c-4.193,14.193-22.257,18.709-33.547,4.193c-0.968,21.934,21.289,32.257,34.837,23.547
						c-2.258,13.225-13.225,22.257-26.773,21.289c16.128,7.096,25.805-5.806,25.805-5.806s-5.161,11.935,2.581,22.902
						c-1.613,7.419-10.645,7.742-10.645,7.742s9.032,4.193,17.418-2.903c0,0,6.185,13.754,21.64,16.877
						c-0.028-7.522,4.165-27.199-0.028-43.327c10,3.226,60.642-16.451,76.77-32.902c0,0-9.032,12.903-23.225,20.644
						C142.651,122.654,169.936,98.347,182.744,79.857z"/>
					<path style="fill:#A01B05;" d="M240.182,179.406c-0.011,0-0.022-0.001-0.033-0.002c-0.141-0.012-0.262-0.106-0.309-0.239
						c-3.152-8.773,0.079-27.722,1.822-36.367c-6.086,13.236-16.964,16.618-17.083,16.654c-0.142,0.043-0.289-0.004-0.384-0.116
						c-0.093-0.111-0.111-0.267-0.046-0.397c0.112-0.222,10.075-20.293,9.726-43.771c-0.75,9.566-3.534,20.4-11.174,28.168
						c-5.918,6.017-11.86,7.305-12.11,7.357c-0.144,0.027-0.292-0.03-0.375-0.152c-0.082-0.122-0.083-0.282-0.002-0.405
						c4.617-6.988,6.715-13.547,7.631-17.395c-1.103,2.091-2.944,4.597-5.794,5.803c-0.149,0.061-0.315,0.021-0.419-0.099
						c-0.103-0.121-0.116-0.295-0.032-0.429c8.808-14.167,5.66-43.051-5.909-54.221c-4.691-4.529-9.941-6.524-15.601-5.918
						c-3.898,0.416-6.658,1.988-7.093,2.248c-12.546,18.079-40.163,42.88-59.385,42.568c-0.165-0.003-0.307-0.117-0.347-0.277
						c-0.04-0.161,0.034-0.328,0.179-0.406c9.416-5.135,16.604-12.635,20.309-17.006c-8.085,6.744-21.643,14.322-37.456,20.847
						c-13.596,5.611-29.632,10.529-35.721,9.243c2.877,11.702,1.473,25.334,0.539,34.405c-0.353,3.434-0.658,6.4-0.651,8.414
						c0,0.109-0.048,0.212-0.133,0.282c-0.085,0.069-0.197,0.1-0.303,0.075c-13.921-2.812-20.478-14.3-21.691-16.66
						c-8.365,6.753-17.356,2.702-17.449,2.659c-0.153-0.07-0.236-0.237-0.203-0.402c0.033-0.165,0.175-0.285,0.343-0.292
						c0.087-0.003,8.642-0.397,10.267-7.3c-5.934-8.526-4.2-17.693-3.109-21.412c-3.112,3.145-12.068,10.278-25.033,4.572
						c-0.162-0.071-0.249-0.248-0.207-0.42c0.044-0.172,0.209-0.291,0.379-0.276c13.006,0.924,23.679-7.34,26.241-20.19
						c-6.464,3.76-15.098,3.575-22.249-0.534c-8.24-4.738-12.892-13.622-12.445-23.765c0.007-0.152,0.108-0.284,0.253-0.331
						c0.146-0.045,0.304,0.003,0.398,0.123c5.235,6.73,12.315,9.819,19.418,8.474c6.06-1.146,11.021-5.525,13.164-11.54
						c-8.737,5.831-16.635,6.512-22.322,1.9c-7.144-5.796-8.578-18.105-5.397-25.528c0.063-0.148,0.217-0.229,0.374-0.219
						c0.159,0.018,0.288,0.137,0.317,0.295c1.247,6.65,4.131,10.749,8.573,12.184c6.78,2.193,17.355-2.289,26.946-11.412
						c10.66-10.139,19.734-16.378,23.536-18.739c-3.629,0.696-11.695,2.75-17.888,7.99c-0.143,0.121-0.353,0.115-0.49-0.018
						c-0.134-0.131-0.146-0.343-0.028-0.489c11.563-14.253,28.845-31.821,60.54-42.419c-17.685,1.557-31.309,8.001-41.401,12.773
						c-2.414,1.142-4.696,2.221-6.779,3.114c-0.171,0.074-0.373,0.005-0.463-0.161c-0.089-0.166-0.038-0.372,0.119-0.477
						c24.995-16.602,62.894-33.383,101.492-19.069c21.635,8.024,34.011,22.491,35.592,24.419
						c35.373-13.869,57.583,10.514,76.315,38.944c5.1,7.741,13.748,17.264,25.985,18.664c7.311,0.834,12.529-1.669,12.581-1.695
						c0.159-0.079,0.354-0.029,0.457,0.118c0.103,0.146,0.084,0.346-0.044,0.47c-3.454,3.33-10.509,8.848-19.319,8.848
						c-0.154,0-0.307-0.001-0.461-0.005c-5.261-0.116-10.16-2.228-14.592-6.286c4.157,7.493,10.615,13.035,17.612,15.018
						c6.184,1.754,12.496,0.724,18.244-2.982c0.15-0.095,0.346-0.07,0.466,0.061c0.119,0.132,0.127,0.331,0.017,0.47
						c-5.415,6.891-12.855,11.167-20.951,12.041c-6.971,0.754-13.893-1.14-19.683-5.344c7.27,11.894,15.6,13.522,21.327,13.681
						c0.162,0.005,0.301,0.116,0.342,0.273c0.041,0.157-0.027,0.322-0.168,0.404c-12.409,7.332-24.911-4.083-28.081-7.323
						c0.481,2.647,2.792,9.715,13.854,14.743c0.12,0.055,0.202,0.171,0.212,0.302c0.01,0.132-0.051,0.259-0.161,0.333
						c-2.065,1.376-4.815,1.695-7.743,0.89c-3.257-0.893-9.408-3.997-14.945-14.704c0.797,17.321,9.503,25.887,33.564,33.485
						c0.119,0.038,0.212,0.135,0.242,0.258c0.031,0.122-0.003,0.251-0.091,0.342c-4.409,4.56-12.843,8.089-21.749,5.694
						c-6.83-1.838-15.821-7.687-20.764-24.924c-0.42,14.79-4.416,27.954-12.798,42.324
						C240.43,179.337,240.311,179.406,240.182,179.406z M242.969,138.095c0.032,0,0.065,0.005,0.098,0.013
						c0.188,0.053,0.3,0.243,0.256,0.434c-0.067,0.284-6.499,27.992-3.048,39.613c8.522-14.825,12.33-28.395,12.33-43.89
						c0-0.184,0.137-0.339,0.319-0.361c0.191-0.025,0.354,0.096,0.398,0.274c4.673,18.872,13.959,25.068,20.926,26.943
						c8.345,2.245,16.258-0.878,20.619-5.078c-24.439-7.818-33.235-17.19-33.553-35.641c-0.003-0.171,0.114-0.321,0.28-0.361
						c0.166-0.039,0.337,0.043,0.411,0.197c5.596,11.658,11.941,14.909,15.225,15.81c2.453,0.672,4.758,0.511,6.572-0.452
						c-13.621-6.466-13.78-15.77-13.78-16.169c0-0.152,0.095-0.288,0.237-0.341c0.141-0.052,0.301-0.012,0.403,0.103
						c0.136,0.159,13.407,15.269,26.802,8.599c-11.985-0.888-18.042-9.272-21.588-15.602c-0.085-0.153-0.05-0.345,0.084-0.457
						c0.134-0.112,0.33-0.113,0.464-0.001c5.92,4.885,13.247,7.139,20.637,6.34c7.247-0.783,13.962-4.365,19.108-10.154
						c-5.424,2.924-11.261,3.615-17.006,1.987c-7.806-2.212-14.949-8.722-19.105-17.412c-0.078-0.162-0.025-0.355,0.121-0.457
						c0.147-0.102,0.348-0.08,0.47,0.048c4.711,4.958,9.996,7.535,15.708,7.661c0.148,0.004,0.297,0.005,0.445,0.005
						c7.49,0,13.699-4.132,17.394-7.344c-2.176,0.71-6.137,1.616-11.11,1.057c-12.537-1.415-21.359-11.109-26.552-18.992
						c-18.605-28.239-40.653-52.457-75.688-38.569c-0.152,0.059-0.322,0.013-0.421-0.115c-0.123-0.158-12.563-15.923-35.476-24.41
						c-20.496-7.592-53.688-10.698-96.705,16.356c0.754-0.354,1.525-0.719,2.311-1.09c10.707-5.063,25.371-11.998,44.657-13.054
						c0.169-0.035,0.346,0.117,0.378,0.298c0.032,0.18-0.075,0.357-0.249,0.412C83.805,24.152,66.11,40.875,54.265,55.01
						c8.024-5.451,17.598-6.573,17.704-6.585c0.175-0.012,0.339,0.09,0.388,0.259c0.05,0.17-0.028,0.35-0.186,0.428
						c-1.543,0.772-12.11,7.285-25.072,19.615C35.228,80.019,25.02,82.112,19.428,80.304c-4.435-1.433-7.396-5.311-8.813-11.535
						c-3.1,8.745,0.328,19.245,5.629,23.545c5.604,4.545,13.535,3.645,22.332-2.537c0.126-0.09,0.296-0.088,0.422,0.002
						c0.126,0.09,0.181,0.25,0.136,0.399c-2.006,6.793-7.392,11.796-14.054,13.056c-6.998,1.322-14.223-1.649-19.504-7.969
						c-0.104,9.456,4.374,17.675,12.108,22.121c7.177,4.125,15.891,4.176,22.195,0.123c0.124-0.078,0.279-0.077,0.398,0.003
						c0.12,0.08,0.182,0.223,0.158,0.365c-2.215,12.973-12.365,21.626-25.043,21.663c14.515,5.103,23.334-6.339,23.426-6.46
						c0.111-0.147,0.313-0.188,0.474-0.096c0.159,0.093,0.224,0.29,0.152,0.458c-0.051,0.117-4.986,11.883,2.543,22.549
						c0.059,0.083,0.079,0.187,0.058,0.287c-1.233,5.672-6.686,7.347-9.417,7.833c2.838,0.819,9.433,1.869,15.6-3.35
						c0.087-0.073,0.204-0.104,0.315-0.077c0.111,0.025,0.205,0.1,0.251,0.205c0.061,0.134,6.178,13.364,20.948,16.579
						c0.033-2.028,0.322-4.831,0.653-8.042c0.944-9.174,2.372-23.04-0.673-34.746c-0.033-0.129,0.007-0.265,0.102-0.356
						c0.097-0.091,0.234-0.124,0.362-0.081c9.493,3.056,59.856-15.937,76.399-32.81c0.133-0.134,0.347-0.146,0.492-0.025
						c0.146,0.12,0.174,0.333,0.066,0.488c-0.088,0.126-8.704,12.299-22.096,20.051c18.947-0.867,45.271-24.79,57.398-42.297
						c0.027-0.04,0.063-0.073,0.103-0.1c0.122-0.078,3.04-1.914,7.433-2.391c4.055-0.438,10.159,0.266,16.217,6.115
						c11.712,11.308,14.995,39.059,6.66,54.042c4.117-2.504,5.643-8.085,5.659-8.146c0.048-0.182,0.222-0.296,0.417-0.265
						c0.187,0.034,0.315,0.206,0.296,0.394c-0.009,0.099-1.035,9.674-7.883,20.43c1.885-0.6,6.432-2.411,10.869-6.936
						c9.65-9.841,11.385-24.741,11.142-35.506c-0.005-0.194,0.145-0.358,0.338-0.371c0.203-0.013,0.364,0.127,0.387,0.32
						c2.877,24.163-6.809,46.711-8.895,51.219c2.914-1.181,12.869-6.139,17.435-20.108
						C242.673,138.193,242.815,138.095,242.969,138.095z"/>
				</g>
				<g>
					<path style="fill:#FDD4B5;" d="M195.013,208.59c0,0.519-0.349,0.94-0.779,0.94c-0.43,0-0.779-0.421-0.779-0.94
						c0-0.519,0.349-0.94,0.779-0.94C194.664,207.65,195.013,208.07,195.013,208.59z"/>
					<path style="fill:#FDD4B5;" d="M201.141,210.946c0.126,0.343-0.003,0.7-0.287,0.797c-0.284,0.097-0.616-0.102-0.742-0.445
						c-0.126-0.343,0.003-0.7,0.287-0.797C200.684,210.404,201.016,210.603,201.141,210.946z"/>
					<path style="fill:#FDD4B5;" d="M214.412,201.689c0.007-0.156-0.052-0.294-0.152-0.384c-0.001-0.143-0.045-0.281-0.16-0.373
						c0.001-0.362-0.139-0.721-0.47-0.9c-0.129-0.07-0.268,0.092-0.334,0.181c-0.541,0.721-0.566,1.829,0.053,2.513
						c0.035,0.038,0.122,0.024,0.16,0.005c0.11-0.055,0.205-0.129,0.292-0.212C214.136,202.402,214.397,202.027,214.412,201.689z"/>
					<path style="fill:#FDD4B5;" d="M218.672,216.219c-0.124-0.053-0.263-0.084-0.396-0.053c-0.199,0.046-0.372,0.177-0.506,0.326
						c-0.003,0.003-0.004,0.006-0.006,0.009c-0.189,0.135-0.353,0.312-0.442,0.524c-0.092,0.22-0.093,0.459-0.007,0.681
						c0.073,0.186,0.201,0.35,0.325,0.505c0.137,0.172,0.321,0.328,0.559,0.28c0.347-0.07,0.618-0.387,0.707-0.721
						c0.039-0.147,0.013-0.289-0.044-0.42c0-0.017,0.008-0.034,0.007-0.05c-0.002-0.058-0.026-0.113-0.037-0.171
						c0.089-0.046,0.154-0.133,0.189-0.224C219.131,216.61,218.942,216.335,218.672,216.219z"/>
					<path style="fill:#FDD4B5;" d="M214.95,206.833c-0.061-0.082-0.153-0.123-0.251-0.145c0.002-0.003,0.005-0.005,0.007-0.008
						c0.021-0.037,0.073-0.162-0.008-0.17c-0.115-0.012-0.229-0.021-0.343-0.038c-0.05-0.008-0.093-0.008-0.141,0.009
						c-0.064,0.023-0.118,0.073-0.165,0.12c-0.051,0.051-0.094,0.105-0.137,0.164c-0.112,0.155-0.194,0.344-0.227,0.532
						c-0.005,0.025-0.003,0.051-0.006,0.077c-0.036,0.085-0.064,0.174-0.074,0.266c-0.008,0.081-0.003,0.14,0.015,0.221
						c0.014,0.062,0.053,0.109,0.089,0.16c0.042,0.033,0.09,0.045,0.143,0.038c0.007-0.001,0.011-0.006,0.018-0.007
						c0.044,0.038,0.088,0.076,0.145,0.1c0.216,0.093,0.462-0.029,0.63-0.164c0.192-0.154,0.342-0.388,0.396-0.63
						C215.08,207.176,215.065,206.986,214.95,206.833z"/>
					<path style="fill:#FDD4B5;" d="M219.476,201.625c-0.055-0.279-0.31-0.512-0.591-0.552c-0.438-0.062-0.812,0.28-0.985,0.655
						c-0.035,0.076-0.064,0.161-0.081,0.248c-0.046,0.127-0.076,0.258-0.065,0.391c0.005,0.055,0.016,0.11,0.031,0.163
						c0.004,0.017,0.01,0.033,0.016,0.049c0.023,0.06,0.062,0.091,0.12,0.114c0.084,0.033,0.174,0.042,0.264,0.047
						c0.017,0.001,0.033-0.006,0.049-0.006c0.071,0.018,0.146,0.025,0.221,0.021c0.206-0.01,0.392-0.109,0.552-0.231
						c0.195-0.148,0.347-0.372,0.408-0.61c0.005-0.021,0.001-0.044,0.004-0.066C219.462,201.779,219.492,201.705,219.476,201.625z"
						/>
					<g>
						<path style="fill:#FDD4B5;" d="M187.124,202.074c-0.011-0.019-0.023-0.036-0.036-0.054c-0.022-0.032-0.046-0.063-0.074-0.09
							c-0.048-0.046-0.106-0.076-0.165-0.105c0-0.001,0-0.002,0-0.003c-0.003-0.002-0.006-0.001-0.009-0.003
							c-0.008-0.004-0.014-0.01-0.023-0.014c0.011,0.005,0.021,0.01,0.032,0.016c-0.002-0.043,0.004-0.086-0.008-0.126
							c-0.019-0.065-0.057-0.131-0.106-0.178c-0.064-0.061-0.145-0.08-0.231-0.075c-0.059,0.004-0.135,0.056-0.176,0.093
							c-0.057,0.052-0.118,0.117-0.145,0.191c-0.032,0.089-0.068,0.176-0.084,0.269c-0.015,0.085-0.028,0.172-0.023,0.259
							c0.001,0.022,0.009,0.042,0.012,0.064c-0.024,0.157-0.034,0.317-0.011,0.474c-0.001,0.043,0.013,0.08,0.044,0.11
							c0.025,0.021,0.052,0.03,0.083,0.027c0.099,0.004,0.187-0.054,0.26-0.115c0.032-0.026,0.059-0.057,0.09-0.085
							c0.008-0.001,0.016,0.003,0.023,0.002c0.083-0.011,0.168-0.046,0.237-0.093c0.063-0.043,0.12-0.092,0.17-0.149
							c0.064-0.073,0.129-0.17,0.151-0.265C187.148,202.173,187.15,202.119,187.124,202.074z"/>
						<polygon style="fill:#FDD4B5;" points="186.86,201.826 186.849,201.82 186.849,201.822 						"/>
					</g>
					<path style="fill:#FDD4B5;" d="M179.251,195.508c-0.092-0.101-0.197-0.178-0.321-0.236c0.011,0.006,0.023,0.011,0.034,0.017
						c-0.024-0.016-0.05-0.027-0.075-0.041c-0.001-0.001,0.001-0.003,0-0.003c-0.002-0.001-0.004,0-0.007-0.001
						c-0.024-0.013-0.047-0.029-0.073-0.039c-0.082-0.034-0.19,0.014-0.26,0.059c-0.093,0.06-0.173,0.142-0.232,0.235
						c-0.041,0.064-0.077,0.14-0.091,0.216c-0.018,0.101-0.015,0.203,0.023,0.299c0.017,0.045,0.045,0.085,0.074,0.123
						c0.017,0.023,0.038,0.044,0.063,0.059c0.059,0.035,0.127,0.046,0.195,0.034c0.03-0.005,0.049-0.03,0.076-0.041
						c0.018,0.006,0.036,0.016,0.054,0.021c0.149,0.039,0.3,0.026,0.451,0.008c0.082-0.009,0.16-0.09,0.206-0.15
						c0.042-0.054,0.094-0.14,0.071-0.213C179.399,195.727,179.343,195.61,179.251,195.508z"/>
					<path style="fill:#FDD4B5;" d="M182.726,201.11c0.076-0.035,0.166-0.16,0.15-0.221c-0.085-0.336-0.495-0.423-0.776-0.281
						c-0.253,0.128-0.462,0.395-0.469,0.687c-0.005,0.193,0.102,0.383,0.258,0.493c0.082,0.058,0.184,0.107,0.285,0.115
						c0.152,0.012,0.306-0.035,0.43-0.124c0.091-0.065,0.165-0.139,0.219-0.237c0.035-0.063,0.083-0.165,0.046-0.238
						C182.834,201.232,182.774,201.176,182.726,201.11z"/>
					<path style="fill:#FDD4B5;" d="M120.537,203.57c-0.027-0.024-0.055-0.037-0.083-0.054c-0.015-0.016-0.017-0.04-0.034-0.054
						c-0.095-0.078-0.217-0.12-0.339-0.115c-0.155,0.006-0.312,0.103-0.422,0.205c-0.147,0.138-0.278,0.318-0.318,0.519
						c-0.009,0.045,0.001,0.086,0.001,0.127c-0.051,0.152-0.08,0.309-0.045,0.473c0.008,0.036,0.018,0.074,0.036,0.107
						c0.017,0.029,0.037,0.057,0.058,0.084c0.043,0.057,0.101,0.055,0.167,0.056c0.116,0.002,0.237-0.026,0.344-0.069
						c0.173-0.07,0.319-0.179,0.445-0.315c0.044-0.047,0.08-0.104,0.117-0.161c0,0.002,0,0.003,0.001,0.004
						c0.001,0.005,0.001,0.012,0.001,0.014c0,0.008-0.001,0.017-0.001,0.025c-0.001,0.008-0.002,0.017-0.003,0.025
						c0.003-0.032,0-0.001-0.002,0.006c-0.001,0.003-0.009,0.031-0.012,0.041c0,0.001,0.001-0.002-0.003,0.007
						c-0.001,0.003-0.004,0.007-0.006,0.012c-0.001,0.001-0.001,0.002-0.002,0.003c-0.006,0.009-0.012,0.017-0.018,0.026
						c-0.026,0.035-0.075,0.135-0.016,0.162c0.059,0.027,0.145-0.048,0.176-0.089c0.127-0.164,0.195-0.361,0.175-0.57
						C120.736,203.862,120.671,203.69,120.537,203.57z"/>
					<path style="fill:#FDD4B5;" d="M125.669,206.158c-0.076-0.059-0.164-0.091-0.255-0.1c-0.084-0.074-0.184-0.133-0.295-0.165
						c-0.257-0.075-0.538-0.026-0.764,0.113c-0.16,0.098-0.289,0.244-0.38,0.407c-0.055,0.099-0.11,0.212-0.072,0.325
						c0.025,0.074,0.065,0.14,0.112,0.203c0.132,0.18,0.372,0.263,0.599,0.275c0.015,0.016,0.023,0.038,0.04,0.052
						c0.44,0.367,1.021-0.169,1.149-0.593C125.857,206.493,125.824,206.279,125.669,206.158z"/>
					<path style="fill:#FDD4B5;" d="M93.744,204.328c-0.284-0.165-0.626-0.11-0.903,0.069c-0.197,0.127-0.359,0.3-0.495,0.49
						c-0.061,0.085-0.113,0.177-0.16,0.269c-0.027,0.054-0.059,0.113-0.073,0.172c-0.022,0.091,0.016,0.139,0.068,0.207
						c0.235,0.305,0.6,0.526,0.996,0.485c0.458-0.048,0.885-0.424,1.007-0.864C94.276,204.823,94.091,204.42,93.744,204.328z"/>
					<path style="fill:#FDD4B5;" d="M109.963,207.932c-0.629,0.124-1.188,0.664-1.259,1.312c-0.029,0.262,0.041,0.526,0.198,0.738
						c0.154,0.208,0.411,0.292,0.663,0.271c0.301-0.024,0.594-0.203,0.781-0.436c0.172-0.215,0.291-0.502,0.22-0.777
						c0.006-0.021,0.017-0.04,0.022-0.06c0.036-0.133,0.062-0.265-0.014-0.389c-0.022-0.035-0.06-0.049-0.087-0.078
						c-0.006-0.01-0.014-0.019-0.02-0.029c0.109,0.066,0.193,0.163,0.212,0.303c0.01,0.075,0.131,0.003,0.154-0.015
						c0.06-0.046,0.129-0.126,0.131-0.206C110.974,208.05,110.393,207.847,109.963,207.932z"/>
					<path style="fill:#FDD4B5;" d="M147.563,189.622c-0.058-0.118-0.147-0.226-0.259-0.296c-0.117-0.073-0.266-0.127-0.405-0.094
						c-0.018,0.004-0.031,0.018-0.048,0.023c-0.017,0.008-0.031,0.009-0.046,0.021c-0.038,0.015-0.078,0.027-0.113,0.045
						c-0.013,0.007-0.023,0.021-0.036,0.03c-0.111,0.075-0.21,0.167-0.283,0.279c-0.093,0.143-0.168,0.331-0.145,0.505
						c0.018,0.137,0.079,0.271,0.2,0.346c0.057,0.035,0.122,0.066,0.189,0.078c0.101,0.018,0.188,0.003,0.284-0.024
						c0.07-0.019,0.128-0.065,0.189-0.104c0.081,0.004,0.162-0.005,0.238-0.034c0.066-0.025,0.135-0.083,0.178-0.136
						c0.045-0.055,0.099-0.124,0.11-0.196C147.641,189.914,147.633,189.762,147.563,189.622z"/>
					<path style="fill:#FDD4B5;" d="M160.296,186.623c-0.001-0.005,0.001-0.01,0-0.015c-0.044-0.181-0.21-0.305-0.383-0.35
						c-0.043-0.011-0.088,0.003-0.131,0.02c-0.045-0.014-0.089-0.041-0.134-0.046c-0.158-0.018-0.32,0.001-0.465,0.069
						c-0.1,0.047-0.178,0.113-0.245,0.201c-0.052,0.069-0.12,0.173-0.109,0.265c0.018,0.143,0.067,0.263,0.167,0.371
						c0.001,0.001,0.003,0.001,0.004,0.002c0.003,0.016-0.004,0.032,0,0.049c0.044,0.172,0.19,0.32,0.345,0.4
						c0.106,0.055,0.214,0.097,0.333,0.114c0.113,0.016,0.228,0.022,0.342,0.027c0.204,0.009,0.397-0.201,0.442-0.389
						C160.525,187.081,160.455,186.831,160.296,186.623z"/>
					<path style="fill:#FDD4B5;" d="M151.622,184.553c-0.079-0.111-0.205-0.182-0.336-0.214c-0.345-0.084-0.695,0.083-0.938,0.322
						c-0.018,0.017-0.029,0.04-0.046,0.057c-0.064,0.024-0.127,0.051-0.181,0.089c-0.187,0.129-0.35,0.306-0.434,0.519
						c-0.059,0.15-0.076,0.319-0.008,0.462c-0.038,0.146-0.061,0.298-0.001,0.437c0.065,0.152,0.208,0.246,0.372,0.255
						c0.252,0.014,0.485-0.133,0.652-0.311c0.124-0.132,0.197-0.295,0.244-0.466c0.238-0.118,0.444-0.309,0.575-0.532
						c0.061-0.104,0.109-0.208,0.143-0.324c0.012-0.043,0.028-0.096,0.027-0.14C151.689,184.646,151.655,184.599,151.622,184.553z"
						/>
					<path style="fill:#FDD4B5;" d="M172.906,192.507c-0.128-0.169-0.346-0.255-0.554-0.255c-0.156,0-0.296,0.077-0.417,0.171
						c-0.101,0.078-0.192,0.2-0.209,0.328c-0.005,0.04-0.005,0.079,0.001,0.119c0.01,0.071,0.024,0.138,0.059,0.201
						c0.077,0.139,0.184,0.234,0.327,0.302c0.073,0.035,0.143,0.052,0.224,0.051c0.085-0.001,0.169-0.022,0.248-0.052
						c0.017-0.006,0.03-0.019,0.045-0.028c0.019-0.006,0.039-0.01,0.057-0.017c0.12-0.043,0.219-0.135,0.28-0.245
						c0.044-0.078,0.064-0.173,0.058-0.263C173.018,192.699,172.977,192.602,172.906,192.507z"/>
					<path style="fill:#FDD4B5;" d="M85.376,203.392c0.04-0.132,0.07-0.266,0.084-0.404c0.004-0.041-0.021-0.077-0.059-0.088
						c-0.442-0.123-0.889,0.183-1.135,0.528c-0.079,0.11-0.13,0.238-0.166,0.371c-0.031,0.088-0.044,0.176-0.043,0.267
						c0,0.001-0.001,0.003-0.001,0.004c0,0.001,0.001,0.002,0.001,0.003c0.001,0.067,0.011,0.131,0.032,0.196
						c0.028,0.122,0.071,0.238,0.147,0.344c0.052,0.073,0.114,0.138,0.187,0.189c0.036,0.025,0.075,0.05,0.115,0.067
						c0.056,0.023,0.123,0.01,0.182-0.005c0.271-0.066,0.488-0.245,0.65-0.466C85.583,204.108,85.673,203.657,85.376,203.392z"/>
					<path style="fill:#FDD4B5;" d="M98.56,211.449c-0.024-0.085-0.071-0.162-0.125-0.231c-0.102-0.129-0.25-0.225-0.414-0.246
						c-0.1-0.012-0.191,0.043-0.264,0.106c-0.004,0.003-0.007,0.008-0.01,0.011c-0.058,0.01-0.116,0.067-0.144,0.11
						c-0.036,0.056-0.053,0.118-0.07,0.18c-0.001,0.002-0.003,0.003-0.004,0.004c-0.108,0.184-0.186,0.43-0.096,0.637
						c0.034,0.078,0.09,0.153,0.158,0.204c0.038,0.028,0.081,0.05,0.124,0.07c0.032,0.015,0.067,0.029,0.103,0.033
						c0.113,0.013,0.222-0.001,0.329-0.042c0.217-0.083,0.384-0.279,0.427-0.508C98.593,211.665,98.591,211.56,98.56,211.449z"/>
					<path style="fill:#FDD4B5;" d="M127.52,200.407c-0.146-0.297-0.5-0.441-0.82-0.374c-0.103,0.021-0.202,0.063-0.288,0.121
						c-0.104,0.07-0.202,0.158-0.254,0.275c-0.038,0.085-0.034,0.169-0.005,0.255c0.057,0.167,0.197,0.278,0.364,0.323
						c0.267,0.071,0.57-0.097,0.735-0.296c0.018-0.022,0.036-0.049,0.054-0.075c0.039,0.027,0.119-0.04,0.137-0.058
						C127.476,200.543,127.546,200.46,127.52,200.407z"/>
					<path style="fill:#FDD4B5;" d="M102.785,225.138c0.023-0.388-0.217-0.811-0.582-0.972c0.045-0.061,0.072-0.129,0.034-0.16
						c-0.208-0.173-0.449-0.366-0.725-0.414c-0.271-0.047-0.547,0.096-0.714,0.304c-0.11,0.137-0.197,0.306-0.181,0.487
						c0.014,0.16,0.084,0.292,0.179,0.418c0.113,0.151,0.256,0.281,0.406,0.4c0.222,0.323,0.57,0.558,0.971,0.577
						c0.053,0.003,0.097-0.014,0.142-0.03c0.004,0.001,0.008,0.003,0.013,0.004c0.115,0.027,0.254-0.088,0.32-0.168
						c0.078-0.093,0.152-0.215,0.122-0.34c-0.002-0.009-0.007-0.016-0.01-0.024C102.768,225.192,102.783,225.167,102.785,225.138z"
						/>
					<path style="fill:#FDD4B5;" d="M208.854,217.633c-0.474-0.175-0.993,0.038-1.323,0.388c-0.325,0.345-0.479,0.917-0.2,1.336
						c0.01,0.015,0.024,0.024,0.034,0.038c0.007,0.072,0.023,0.145,0.052,0.216c0.173,0.425,0.663,0.628,1.09,0.486
						c0.315-0.105,0.591-0.374,0.759-0.654c0.144-0.238,0.23-0.503,0.237-0.783C209.514,218.218,209.279,217.789,208.854,217.633z"
						/>
				</g>
				<g>
					<g>
						<path style="fill:#A01B05;" d="M209.764,57.345c-8.368-1.824-16.904,1.617-22.394,8.04c-2.979,3.486-4.985,7.793-5.506,12.363
							c-0.017,0.151,0.268-0.079,0.282-0.189c1.045-8.218,6.93-15.447,14.575-18.512c3.793-1.521,7.92-1.941,11.937-1.173
							c3.985,0.762,7.75,2.596,10.874,5.175c3.527,2.912,6.219,6.807,7.553,11.193c0.073,0.24,0.568-0.216,0.507-0.441
							C225.351,65.55,218.036,59.148,209.764,57.345z"/>
						<path style="fill:#A01B05;" d="M188.527,57.446c2.032-7.13-2.927-14.157-9.06-17.339c-3.515-1.824-7.422-2.72-11.333-3.177
							c-3.76-0.439-7.613-0.612-11.382-0.195c-4.083,0.452-8.077,1.699-11.306,4.312c-0.139,0.112-0.142,0.352,0.064,0.191
							c5.882-4.594,14.123-4.51,21.184-3.778c7.207,0.747,14.935,3.033,19.109,9.424c1.791,2.742,2.786,6.045,2.388,9.297
							c-0.684-2.192-1.93-4.223-3.445-5.937c-2.596-2.936-6.024-4.974-9.756-6.114c-4.286-1.309-8.848-1.491-13.292-1.159
							c-4.487,0.335-8.942,1.155-13.299,2.264c-8.811,2.244-17.227,5.825-25.276,10.017c-8.314,4.331-16.236,9.355-24.102,14.441
							c-8.061,5.211-16.099,10.452-24.421,15.241c-1.084,0.624-2.172,1.241-3.266,1.847c-0.081,0.045-0.238,0.34-0.075,0.255
							c8.294-4.316,16.168-9.381,24.025-14.435c7.801-5.018,15.595-10.068,23.724-14.545c7.864-4.331,16.057-8.133,24.651-10.778
							c4.308-1.326,8.711-2.35,13.176-2.984c4.446-0.631,8.999-0.918,13.46-0.253c4.087,0.61,8.061,2.045,11.305,4.651
							c2.838,2.281,5.113,5.372,6.056,8.92c0.251,0.942,0.435,1.917,0.544,2.885c0.04,0.355,0.548-0.14,0.555-0.35
							c0.03-0.912-0.054-1.813-0.233-2.693C188.523,57.453,188.526,57.45,188.527,57.446z"/>
						<path style="fill:#A01B05;" d="M186.631,36.364c-3.05-5.813-7.88-10.643-13.685-13.711c-3.194-1.688-6.638-2.86-10.201-3.461
							c-0.207-0.035-0.56,0.471-0.335,0.513c6.263,1.16,12.152,4.19,16.8,8.54c4.839,4.528,8.161,10.454,9.644,16.904
							c0.848,3.69,1.05,7.544,0.678,11.31c-0.033,0.337,0.559-0.092,0.589-0.301C191.101,49.404,189.798,42.4,186.631,36.364z"/>
						<path style="fill:#A01B05;" d="M228.456,61.437c-2.842-4.588-7.235-8.072-12.268-9.989c-5.245-1.998-11.1-2.119-16.444-0.415
							c-3.057,0.975-5.885,2.52-8.372,4.545c-0.072,0.059-0.124,0.274,0.018,0.166c4.492-3.447,10.189-5.303,15.846-5.23
							c5.329,0.069,10.501,1.929,14.749,5.128c2.316,1.744,4.346,3.89,5.986,6.28C228.09,62.097,228.568,61.618,228.456,61.437z"/>
						<path style="fill:#A01B05;" d="M251.422,78.326c-3.046-9.168-8.439-17.827-15.893-24.049
							c-7.357-6.141-16.801-9.505-26.418-8.675c-5.27,0.455-10.389,2.267-14.648,5.424c-0.091,0.067-0.192,0.348-0.011,0.219
							c7.762-5.525,18.058-6.34,27.033-3.679c9.211,2.732,16.753,9.184,22.163,16.985c3.038,4.381,5.402,9.202,7.33,14.163
							C251.06,78.925,251.485,78.514,251.422,78.326z"/>
					</g>
					<path style="fill:#A01B05;" d="M240.579,28.258c-9.206-2.838-19.411-0.946-28.094,2.757c-3.464,1.477-6.771,3.302-9.855,5.455
						c0.397-2.731,0.748-5.68-0.344-8.297c-0.856-2.052-2.637-3.802-4.916-4.052c-0.126-0.014-0.348,0.307-0.216,0.325
						c2.298,0.311,3.98,2.175,4.774,4.26c0.973,2.553,0.601,5.397,0.29,8.046c-1.08,0.769-2.132,1.58-3.151,2.431
						c-0.316,0.264-0.27,0.807,0.181,0.456c7.268-5.657,15.895-9.766,25.017-11.27c8.808-1.452,18.276-0.216,25.192,5.815
						c3.271,2.852,5.738,6.63,6.682,10.892c0.038,0.171,0.42-0.17,0.387-0.341C254.983,36.684,248.201,30.608,240.579,28.258z"/>
					<path style="fill:#A01B05;" d="M196.452,28.152c-1.411-1.031-2.955-1.888-4.512-2.677c-1.628-0.825-3.349-1.527-5.161-1.811
						c-1.95-0.306-3.978-0.091-5.742,0.823c-0.166,0.086-0.438,0.635-0.124,0.482c4.209-2.055,8.87,0.207,12.546,2.351
						c3.625,2.115,6.976,5.148,7.13,9.638c0.012,0.342,0.508-0.152,0.531-0.336C201.551,33.121,199.121,30.102,196.452,28.152z"/>
					<path style="fill:#A01B05;" d="M209.903,78.047c-2.545-2.805-5.737-5.087-9.363-6.254c-3.384-1.089-7.052-1.067-10.414,0.102
						c-3.606,1.254-6.73,3.777-8.289,7.306c-0.08,0.182,0.146,0.053,0.19-0.037c3.096-6.381,11.233-8.733,17.707-6.763
						c7.394,2.25,12.518,8.839,15.194,15.81c1.764,4.595,2.667,9.465,3.369,14.32c0.06,0.416,0.708-0.124,0.671-0.413
						C217.901,93.559,215.862,84.616,209.903,78.047z"/>
				</g>
				<path style="fill:#FDD1AB;" d="M119.008,250.88c-4.624-1.894-13.549-6.292-17.756-9.043c-4.068-2.661-7.79-5.867-11.06-9.462
					c-7.206-7.923-11.969-17.628-14.942-27.854c-1.775-6.107-2.921-12.445-3.461-18.779c-0.023-0.271-0.475,0.138-0.467,0.318
					c0.51,11.381,2.608,22.605,7.46,32.98c4.376,9.358,10.99,17.799,19.499,23.735c4.574,3.19,9.868,6.051,15.432,6.935
					C114.253,249.797,119.708,251.167,119.008,250.88z"/>
				<g>
					<g>
						
							<radialGradient id="SVGID_00000113354788497963654950000001246120997460295824_" cx="155.6663" cy="201.6423" r="26.8641" gradientUnits="userSpaceOnUse">
							<stop  offset="0" style="stop-color:#F37422"/>
							<stop  offset="1" style="stop-color:#FFFFFF"/>
						</radialGradient>
						<path style="opacity:0.51;fill:url(#SVGID_00000113354788497963654950000001246120997460295824_);" d="M178.466,203.989
							c0,6.294-10.494,11.397-23.44,11.397c-12.945,0-23.44-5.103-23.44-11.397c0-6.295,11.177-13.746,24.122-13.746
							C168.654,190.243,178.466,197.694,178.466,203.989z"/>
						<g>
							<path style="fill:#FDD4B5;" d="M176.611,201.171c-0.546,0.422-1.276,0.673-1.969,0.682c-1.344,0.018-2.619-0.551-3.94-0.802
								c-5.083-0.966-6.643,6.47-14.421,6.437c-5.815-0.024-7.592-3.338-10.322-4.516c-2.731-1.178-4.629-4.176-7.498-3.396
								c-1.506,0.41-3.344,1.209-4.427,0.085c-0.248-0.257-0.394-0.581-0.461-0.927c-1.162,1.459-1.818,3.161-1.818,5.206
								c-0.62,6.667,12.713,9.767,12.713,9.767c13.488,4.341,16.899,0.62,24.806-1.24
								C178.863,211.011,178.853,205.087,176.611,201.171z"/>
						</g>
						<g>
							<path style="fill:#FDD4B5;" d="M171.061,207.823c-0.953-1.207-2.542-0.508-5.401,2.288c-2.86,2.796-6.037,5.465-10.93,5.465
								c-4.893,0-7.689-3.304-11.883-7.181c-4.194-3.876-6.037-0.318-3.114,2.605c0.875,0.875,1.985,1.628,3.109,2.257
								c0.989,0.301,1.626,0.45,1.626,0.45c7.436,2.393,11.808,2.334,15.56,1.49c2.705-1.519,6.384-2.859,8.174-3.688
								C170.807,210.302,172.014,209.031,171.061,207.823z"/>
						</g>
						<g>
							<path style="fill:#E2AB86;" d="M139.854,211.112c0.354-0.157,0.7-0.285,0.989-0.382c1.218-0.41,2.514-0.611,3.8-0.646
								c-0.576-0.545-1.17-1.109-1.797-1.689c-4.194-3.876-6.037-0.318-3.114,2.605C139.77,211.039,139.815,211.074,139.854,211.112
								z"/>
							<path style="fill:#E2AB86;" d="M169.519,210.333c0.161,0.052,0.322,0.11,0.483,0.171c1.293-0.894,1.751-1.804,1.059-2.68
								c-0.91-1.152-2.411-0.546-5.031,1.94C167.218,209.739,168.389,209.968,169.519,210.333z"/>
						</g>
						<path style="fill:#FDD1AB;" d="M167.926,196.147c-0.144,1.355-2.516,2.214-5.298,1.918c-2.782-0.296-4.92-1.635-4.776-2.99
							c0.144-1.355,2.516-2.214,5.298-1.918C165.932,193.453,168.07,194.792,167.926,196.147z"/>
					</g>
					<path style="fill:#B4715A;" d="M145.176,213.508c-3.516-1.28-6.969-2.862-9.92-5.197c-1.315-1.041-2.577-2.299-3.201-3.888
						c-0.7-1.78-0.255-3.661,0.836-5.18c1.288-1.794,3.306-2.929,5.175-4.021c0.071-0.041,0.19-0.306,0.041-0.226
						c-3.112,1.676-6.923,4.034-6.941,8.05c-0.019,3.993,3.977,6.665,7.063,8.406c2.071,1.168,4.283,2.069,6.608,2.576
						C145.032,214.069,145.416,213.595,145.176,213.508z"/>
					<path style="fill:#B4715A;" d="M169.493,193.644c-5.855-3.954-13.791-4.574-20.476-2.657c-1.868,0.535-3.658,1.288-5.333,2.272
						c-0.066,0.039-0.183,0.29-0.04,0.215c6.186-3.237,13.339-3.863,19.992-1.719c1.877,0.605,3.686,1.449,5.41,2.404
						C169.258,194.276,169.688,193.775,169.493,193.644z"/>
					<path style="fill:#B4715A;" d="M178.434,204.393c-0.204-1.979-1.343-3.558-2.578-5.002c-0.067-0.079-0.285,0.169-0.219,0.261
						c1.031,1.434,2.005,3.082,2.234,4.891c0.113,0.887,0.045,1.829-0.318,2.65c-0.399,0.903-1.146,1.518-1.948,2.02
						c-3.004,1.879-6.688,3.27-10.059,4.13c-0.255,0.065-0.513,0.248-0.154,0.162c2.006-0.482,4.013-0.966,5.959-1.674
						c1.811-0.659,3.712-1.491,5.207-2.768C177.921,207.897,178.624,206.229,178.434,204.393z"/>
				</g>
				<g>
					<path style="fill:#DA3210;" d="M249.401,108.701c0.389,12.461-1.168,35.435-1.168,35.435s0-15.186-4.283-30.373
						c-1.558,15.965-6.23,25.7-6.23,25.7s8.177-38.161-10.124-56.852c7.009,13.629-1.168,45.949-1.168,45.949
						s7.399-66.197-31.541-61.914c15.576-14.408,32.198,7.596,32.198,7.596s-1.046-20.446-26.357-18.109
						c0,0,11.829-9.166,24.208,2.033c-4.274-7.81-14.147-8.842-22.547-7.81c8.4-7.074,31.683-3.684,44.062,17.536
						c-3.389-12.231-17.536-24.02-32.125-23.726c14.147-8.842,38.081,0.535,55.499,26.125
						c14.654,21.529,27.939,28.443,43.183,23.566c1-0.786,1.958-1.62,2.862-2.491c0,0-20.967,10.322-39.03-17.096
						s-40.321-52.901-76.125-38.708c0,0-49.352-63.545-136.768-5.484c11.29-4.838,27.741-14.838,51.288-16.128
						c-17.067,5.334-30.308,12.727-41.082,21.15c51.575-36.004,96.982-17.517,96.982-17.517s-17.523-3.894-26.868,3.505
						c35.824-5.062,35.203,19.021,35.203,19.021c-17.365-12.131-36.761,2.785-36.761,2.785s19.859-6.23,32.283,1.239
						c-11.329-3.434-49.417,2.266-79.705,28.472c34.351-20.521,70.007-31.268,81.689-21.144
						c11.682,10.124-2.726,32.709-22.974,47.896c7.009-8.956,16.744-30.373,16.744-30.373s-2.726,4.673-23.753,25.311
						c-33.488,32.709-79.047,36.993-84.109,17.133c1.504,34.836-15.38,48.378-27.606,53.608c3.408,0.426,8.401,0.055,13.187-3.995
						c0,0,6.185,13.754,21.64,16.877c-0.028-7.522,4.165-27.199-0.028-43.327c10,3.226,60.642-16.451,76.77-32.902
						c0,0-9.032,12.903-23.225,20.644c19.031,0.323,46.316-23.984,59.124-42.474c0,0,11.67-7.455,23.202,3.678
						c11.531,11.134,15.11,39.963,5.964,54.675c5.169-2.187,6.959-8.947,6.959-8.947s-0.994,9.941-8.35,21.075
						c0,0,24.064-4.997,23.204-43.06c3.226,27.096-9.247,51.825-9.247,51.825s13.01-3.871,18.494-20.644
						c0,0-6.864,29.233-2.787,40.583c9.561-16.391,12.786-30.261,12.786-44.776c8.387,33.869,33.224,31.289,42.579,21.612
						c-0.813-0.257-1.607-0.515-2.386-0.775C279.63,156.538,259.636,150.615,249.401,108.701z"/>
				</g>
				<g>
					<path style="fill:#DA3210;" d="M48.221,78.785c-24.51,15.163-34.439,1.97-38.145-9.519
						c-4.293,13.873,5.842,36.877,28.709,20.809c-0.049,0.166-0.109,0.324-0.162,0.487C42.089,87.384,45.21,83.302,48.221,78.785z"
						/>
					<path style="fill:#DA3210;" d="M45.024,101.778c-22.599,13.774-36.131,2.482-39.791-7.063
						c-0.644,21.623,21.388,31.749,34.842,23.1c-0.016,0.095-0.037,0.188-0.055,0.283C42.947,112.94,41.951,110.998,45.024,101.778z
						"/>
					<path style="fill:#DA3210;" d="M15.691,140.018c14.687,4.9,23.416-6.72,23.416-6.72s-0.117,0.272-0.287,0.764
						c3.994-5.669,6.433-11.991,7.59-18.241C37.282,135.852,24.866,140.155,15.691,140.018z"/>
				</g>
				<g>
					<path style="fill:#DA3210;" d="M317.69,106.663c-9.098,5.663-28.757,13.269-49.568-9.275
						c2.486,5.067,5.258,10.837,9.406,15.658C290.271,122.428,307.395,119.629,317.69,106.663z"/>
				</g>
				<path style="fill:#DA3210;" d="M73.167,91.887c0,0,31.166-26.933,64.64-35.013c-18.468,10.388-36.937,23.855-13.082,13.467
					c23.855-10.389-2.693,33.859,33.089-5.771c-21.931,35.398-26.933,50.404-79.261,51.173c11.158-2.693,26.164-5.002,32.705-13.082
					s-23.47,14.621-11.927-3.463c11.543-18.084-26.164,6.156-15.006-6.926C95.483,79.19,86.634,84.192,73.167,91.887z"/>
				<g>
					<path style="fill:#DA3210;" d="M61.4,51.65c5.722-2.318,10.609-2.863,10.609-2.863c-0.656,0.328-3.741,2.167-8.346,5.542
						c15.295-8.853,37.535-19.111,61.436-21.455C99.208,27.614,76.786,39.249,61.4,51.65z"/>
				</g>
				<path style="fill:#DA3210;" d="M61.447,89.214c0,0,28.816-30.536,76.555-43.009c-15.057-1.637-35.834,9.928-19.839-0.659
					c15.107-9.999-30.968,14.5-12.498-1.521c9.021-7.825,32.337-11.152,32.337-11.152s-57.667,2.263-84.553,36.319
					c17.028-10.934,30.113-15.774,19.896-5.377s24.377-8.245,7.349,1.613C63.666,75.287,61.447,89.214,61.447,89.214z"/>
				<path style="fill:#DA3210;" d="M228.75,67.28c0,0,11.182,14.193,12.903,37.418c0,0,3.011-4.301,2.15-13.763
					c-0.86-9.462,5.161,15.053,6.451,1.72c1.29-13.333,7.742,17.633,7.742,17.633s0.43-33.977-20.644-48.6
					c10.752,12.042,14.193,28.386,3.871,13.763C230.901,60.829,248.964,91.365,228.75,67.28z"/>
				<path style="fill:#DA3210;" d="M244.502,59.108c0,0,22.096,42.901,41.611,48.868c-12.419-9.838-25.16-26.773-17.902-22.096
					s8.064,5.484,4.032-3.387c-4.032-8.87,1.29,1.774,9.677,6.613c-9.838-11.29-19.676-29.999-28.386-34.837
					c7.742,8.548,12.419,18.709,4.193,10.161C249.502,55.883,261.921,81.204,244.502,59.108z"/>
			</g>
		</g>
		<g>
			<path style="fill:#FDD1AB;" d="M177.057,219.575c-4.778,1.271-9.658,2.251-14.608,2.483c-4.989,0.234-10.017-0.375-14.903-1.359
				c-4.787-0.964-9.473-2.375-14.061-4.038c-3.701-1.341-7.599-2.558-11.558-2.798c0.211,0.163,0.423,0.325,0.622,0.503
				c2.325,2.094,3.714,5.04,4.872,7.891c1.166,2.873,2.154,5.798,3.507,8.594c2.805,5.798,6.752,11.582,12.873,14.204
				c1.608,0.689,3.331,1.108,5.048,1.422c1.749,0.321,3.525,0.484,5.303,0.485c3.402,0.002,6.786-0.603,9.985-1.758
				c6.475-2.337,12.012-6.864,16.001-12.432c2.184-3.048,3.739-6.471,5.667-9.677c1.735-2.887,3.717-5.648,6.176-7.954
				c-0.162,0.047-0.324,0.093-0.485,0.141C186.681,216.704,181.911,218.285,177.057,219.575z"/>
			<g>
				<path style="fill:#864F2A;" d="M189.279,216.058c-0.66,0.357-1.305,0.739-1.931,1.153c0.042,0.027,0.086,0.051,0.135,0.065
					c0.135,0.036,0.281,0.049,0.42,0.062c0.08,0.008,0.158,0.003,0.236,0.005c-0.134,0.05-0.266,0.104-0.402,0.149
					c-0.669,0.408-1.348,0.798-2.063,1.128c-2.51,1.16-5.19,1.905-7.859,2.597c-4.873,1.264-9.817,2.177-14.839,2.578
					c-9.199,0.735-18.855,0.003-27.585-3.145c-0.331-0.119-0.661-0.246-0.99-0.373c-0.49-0.226-0.975-0.464-1.446-0.729
					c-1.211-0.682-2.443-1.351-3.637-2.063c-1.155-0.688-2.24-1.536-3.342-2.309c-0.724-0.507-1.45-1.026-2.159-1.565
					c0.101-0.034,0.202-0.069,0.301-0.106c0.093-0.036,0.179-0.076,0.266-0.126c0.038-0.022,0.075-0.044,0.111-0.069
					c0.026-0.018,0.041-0.045,0.062-0.065c0.057-0.032,0.12-0.066,0.161-0.109c0.002-0.002,0.001-0.001,0.003-0.002
					c0.008-0.003,0.016-0.006,0.024-0.01c0.038-0.014,0.076-0.031,0.113-0.049c0.16-0.074,0.21-0.405-0.033-0.356
					c-0.063,0.013-0.103,0.005-0.152-0.012c-0.03-0.036-0.068-0.065-0.11-0.08c-0.1-0.034-0.191-0.079-0.293-0.11
					c-0.146-0.043-0.28-0.082-0.432-0.101c-0.116-0.015-0.233-0.029-0.35-0.038c-0.158-0.013-0.308,0.013-0.464,0.04
					c-0.561,0.096-1.018,0.466-1.241,0.962c0.007,0.031,0.012,0.064,0.02,0.095c0.142,0.559,0.355,1.252,0.791,1.685
					c0.027-0.014,0.055-0.027,0.078-0.043c0.176-0.122,0.299-0.32,0.313-0.536c0.007-0.096,0.012-0.191,0.016-0.288
					c0.002-0.046,0.006-0.092,0.005-0.138c0,0.001-0.025-0.255-0.01-0.115c0.01,0.095,0.001,0.011,0-0.01
					c-0.003-0.076,0.002-0.151,0.004-0.226c0.014-0.003,0.028-0.008,0.043-0.011c-0.018,0.003-0.032,0.005-0.043,0.006
					c0-0.001,0-0.001,0-0.002c0.012-0.002,0.034-0.006,0.077-0.012c0.034-0.005,0.063-0.012,0.094-0.019
					c0.278,0.334,0.586,0.639,0.911,0.928c1.567,1.948,2.611,4.337,3.629,6.587c0.813,1.796,1.551,3.623,2.371,5.415
					c0.416,0.908,0.836,1.907,1.342,2.843c0.286,0.701,0.583,1.397,0.904,2.083c1.305,2.792,3.014,5.411,5.377,7.424
					c2.219,1.891,4.882,3.204,7.685,3.978c5.763,1.593,11.963,1.092,17.769-0.001c6.129-1.154,11.931-3.611,16.168-8.322
					c2.561-2.848,4.055-6.234,5.565-9.706c0.708-1.628,1.461-3.217,2.378-4.737c0.692-1.148,1.498-2.163,2.395-3.121
					c0.002,0,0.004-0.001,0.007-0.001c0.071-0.015,0.142-0.028,0.213-0.041c0.008-0.002,0.057-0.009,0.084-0.014
					c0.02-0.003,0.046-0.006,0.051-0.007c0.018-0.002,0.035-0.002,0.053-0.004c0.01,0.051,0.024,0.102,0.037,0.152
					c0.018,0.07,0.046,0.123,0.079,0.166c0.27-0.55,0.518-1.109,0.731-1.683c-0.033-0.007-0.065-0.016-0.103-0.014
					C190.288,215.722,189.773,215.875,189.279,216.058z"/>
				<path style="fill:#D25452;" d="M185.411,222.247c-1.433,2.899-2.464,5.994-4.141,8.772c-3.445,5.706-9.256,9.124-15.601,10.693
					c-5.801,1.434-12.233,2.134-18.14,0.953c-2.868-0.574-5.644-1.641-8.037-3.342c-2.549-1.812-4.466-4.273-5.901-7.033
					c-0.129-0.248-0.249-0.5-0.372-0.751c0.022-0.045,0.033-0.091,0.019-0.128c-0.393-0.986-0.869-1.938-1.342-2.893
					c-0.749-1.878-1.42-3.789-2.17-5.665c-0.741-1.856-1.555-3.845-2.685-5.577c-0.035-0.072-0.071-0.144-0.107-0.216
					c5.348,4.202,12.707,6.016,19.206,6.968c9.915,1.452,20.064,0.753,29.782-1.621c3.007-0.734,6.032-1.514,8.895-2.705
					c1.193-0.497,2.324-1.109,3.431-1.764C187.125,219.24,186.181,220.69,185.411,222.247z"/>
				<path style="fill:#FFFFFF;" d="M136.862,227.28c3.497,3.195,8.448,4.31,13.029,4.779c4.963,0.508,10.048,0.339,14.925-0.754
					c4.613-1.033,9.149-2.934,12.706-6.11c1.386-1.238,2.564-2.639,3.538-4.162c-1.697,0.518-3.421,0.955-5.139,1.375
					c-9.718,2.374-19.866,3.073-29.782,1.621c-4.552-0.667-9.524-1.76-13.934-3.797C133.336,222.854,134.754,225.353,136.862,227.28
					z"/>
				<path style="fill:#E4E5E6;" d="M175.921,222.407c-9.718,2.374-19.866,3.073-29.782,1.621c-4.552-0.667-9.524-1.76-13.934-3.797
					c0.39,0.906,0.818,1.794,1.293,2.651c0.043,0.022,0.083,0.049,0.126,0.07c1.111,0.54,2.222,1.011,3.402,1.383
					c2.589,0.817,5.207,1.67,7.85,2.29c2.398,0.563,4.851,0.906,7.316,0.938c2.523,0.033,5.043-0.31,7.53-0.701
					c2.443-0.384,4.875-0.843,7.329-1.16c1.095-0.141,2.198-0.213,3.292-0.361c0.711-0.096,1.519-0.271,2.218-0.03
					c1.172,0.404,1.17,1.724,0.808,2.812c1.48-0.828,2.881-1.794,4.152-2.929c1.386-1.238,2.564-2.639,3.538-4.162
					C179.363,221.55,177.64,221.988,175.921,222.407z"/>
				<path style="fill:#F47E5A;" d="M168.524,239.82c-5.875-2.213-12.292-3.203-18.56-2.795c-3.528,0.23-7.127,0.944-10.408,2.341
					c2.378,1.675,5.129,2.73,7.972,3.299c5.907,1.181,12.339,0.481,18.14-0.953c1.434-0.355,2.838-0.809,4.196-1.357
					C169.42,240.169,168.974,239.989,168.524,239.82z"/>
			</g>
		</g>
		<g>
			<g>
				<path style="fill:#FDD4B5;" d="M95.497,194.274c0,0,20.642-14.061,36.993-4.715c-0.829-2.402-1.857-2.989-1.857-2.989
					s6.608-3.377,3.23-16.592c-3.377-13.215-11.747-20.704-23.641-19.382c-11.894,1.322-21.144,23.641-8.223,37.149
					C97.889,189.506,95.497,194.274,95.497,194.274z"/>
				<path style="fill:#2F1604;" d="M128.216,186.206c0,0-11.167-0.798-18.745,0.798c-18.146-8.375-11.367-27.12-1.795-32.305
					c9.572-5.185,19.941,3.191,23.331,11.167C134.398,173.843,133.8,182.019,128.216,186.206z"/>
				<g>
					<path style="fill:#E4E5E6;" d="M127.428,186.256c0,0-10.469-0.748-17.573,0.748c-17.013-7.852-10.656-25.425-1.683-30.286
						c8.974-4.861,18.695,2.991,21.873,10.469C133.223,174.665,132.662,182.33,127.428,186.256z"/>
					<path style="fill:#D6A174;" d="M109.854,187.367c-0.052,0-0.104-0.011-0.152-0.033c-6.808-3.142-10.667-8.299-10.866-14.519
						c-0.206-6.419,3.733-13.477,9.163-16.418c3.249-1.76,6.893-2.019,10.532-0.746c4.923,1.72,9.685,6.298,11.849,11.393
						c3.417,8.04,2.344,15.694-2.734,19.502c-0.069,0.053-0.155,0.085-0.243,0.072c-0.105-0.007-10.5-0.727-17.473,0.741
						C109.905,187.365,109.879,187.367,109.854,187.367z M114.004,155.586c-1.965,0-3.874,0.485-5.659,1.452
						c-5.204,2.819-8.98,9.592-8.783,15.754c0.134,4.177,2.039,9.96,10.336,13.831c6.628-1.364,16.16-0.818,17.418-0.739
						c4.708-3.628,5.65-10.892,2.395-18.555c-2.09-4.916-6.679-9.333-11.42-10.99C116.853,155.836,115.415,155.586,114.004,155.586z
						"/>
				</g>
				<path style="fill:#FFFFFF;" d="M127.807,186.318c0,0-9.601-0.686-16.117,0.686c-15.602-7.201-9.773-23.318-1.543-27.775
					s17.145,2.743,20.06,9.601C133.122,175.688,132.608,182.718,127.807,186.318z"/>
				<g>
					<path style="fill:#B4715A;" d="M96.34,175.333c-0.882-8.623,1.54-18.94,9.759-23.355c6.062-3.566,13.795-1.465,18.587,3.265
						c1.557,1.544,3.122,3.289,3.741,5.432c-2.594-5.683-9.582-10.03-15.828-9.836C100.495,151.64,95.736,164.767,96.34,175.333
						L96.34,175.333z"/>
				</g>
				<g>
					<defs>
						<path id="SVGID_00000008846000169780128110000010555114501355147422_" d="M127.428,186.256c0,0-10.469-0.748-17.573,0.748
							c-17.013-7.852-10.656-25.425-1.683-30.286c8.974-4.861,18.695,2.991,21.873,10.469
							C133.223,174.665,132.662,182.33,127.428,186.256z"/>
					</defs>
					<clipPath id="SVGID_00000010275509184960451140000017312488330558427057_">
						<use xlink:href="#SVGID_00000008846000169780128110000010555114501355147422_"  style="overflow:visible;"/>
					</clipPath>
					<g style="clip-path:url(#SVGID_00000010275509184960451140000017312488330558427057_);">
						<g>
							<g>
								<path style="fill:#004FA2;" d="M130.344,175.578c-0.773,6.535-6.697,11.206-13.232,10.433
									c-6.535-0.773-11.206-6.697-10.433-13.232c0.773-6.535,6.697-11.206,13.232-10.433
									C126.446,163.118,131.117,169.043,130.344,175.578z"/>
								<path style="fill:#639BD2;" d="M128.75,175.389c-0.669,5.655-5.795,9.697-11.45,9.028c-5.655-0.669-9.697-5.795-9.028-11.45
									c0.669-5.655,5.795-9.697,11.45-9.028C125.377,164.608,129.419,169.734,128.75,175.389z"/>
								<path style="fill:#002459;" d="M124.534,174.891c-0.393,3.326-3.409,5.704-6.735,5.311
									c-3.326-0.393-5.704-3.409-5.311-6.735c0.393-3.327,3.409-5.704,6.736-5.311
									C122.55,168.549,124.928,171.564,124.534,174.891z"/>
							</g>
							<path style="fill:#FFFFFF;" d="M116.411,169.398c-0.137,1.154-1.183,1.98-2.338,1.843c-1.155-0.136-1.98-1.183-1.843-2.338
								c0.136-1.154,1.183-1.98,2.338-1.843C115.722,167.197,116.547,168.244,116.411,169.398z"/>
							<path style="fill:#FFFFFF;" d="M113.446,173.74c-0.081,0.684-0.701,1.173-1.385,1.092c-0.684-0.081-1.173-0.701-1.092-1.385
								c0.081-0.684,0.701-1.173,1.385-1.092C113.037,172.435,113.526,173.056,113.446,173.74z"/>
							<path style="fill:#6C86C3;" d="M127.189,174.19c-0.067-0.387-1.418-0.128-1.481,0.128c-0.652,2.636-1.737,5.015-4.259,6.1
								c-1.177,0.506-2.435,0.851-3.752,0.773c-1.242-0.074-2.473-0.45-3.528-1.078c-1.216-0.724-2.209-1.77-2.79-2.999
								c-0.105-0.223-0.473-0.074-0.583,0.048c-0.973,1.081,0.218,2.997,0.971,3.861c3.742,4.295,11.467,3.287,14.277-1.003
								C126.971,178.606,127.547,176.259,127.189,174.19z"/>
						</g>
					</g>
				</g>
			</g>
			<path style="fill:#B4715A;" d="M133.417,188.984c-4.902-2.345-10.641-3.157-16.033-2.979c-5.459,0.18-10.907,1.475-15.842,3.824
				c-2.773,1.32-5.419,2.969-7.706,5.024c-0.103,0.093-0.188,0.419,0.037,0.255c4.373-3.176,9.11-5.646,14.375-6.965
				c5.186-1.3,10.626-1.546,15.906-0.692c2.979,0.482,5.806,1.394,8.628,2.438C133.113,190.01,133.742,189.14,133.417,188.984z"/>
		</g>
		<g>
			<g>
				<path style="fill:#FDD4B5;" d="M213.414,194.274c0,0-20.642-14.061-36.993-4.715c0.829-2.402,1.857-2.989,1.857-2.989
					s-6.608-3.377-3.23-16.592c3.377-13.215,11.747-20.704,23.64-19.382c11.894,1.322,21.144,23.641,8.223,37.149
					C211.022,189.506,213.414,194.274,213.414,194.274z"/>
				<path style="fill:#2F1604;" d="M180.695,186.206c0,0,11.167-0.798,18.745,0.798c18.146-8.375,11.367-27.12,1.795-32.305
					c-9.572-5.185-19.941,3.191-23.331,11.167C174.513,173.843,175.111,182.019,180.695,186.206z"/>
				<g>
					<path style="fill:#E4E5E6;" d="M181.483,186.256c0,0,10.469-0.748,17.573,0.748c17.013-7.852,10.656-25.425,1.683-30.286
						c-8.974-4.861-18.695,2.991-21.873,10.469C175.688,174.665,176.249,182.33,181.483,186.256z"/>
					<path style="fill:#D6A174;" d="M199.057,187.367c-0.025,0-0.05-0.003-0.075-0.008c-6.973-1.467-17.368-0.748-17.473-0.741
						c-0.091,0.009-0.174-0.02-0.243-0.072c-5.077-3.808-6.151-11.463-2.734-19.502c2.165-5.094,6.926-9.673,11.849-11.393
						c3.639-1.273,7.281-1.014,10.532,0.746c5.43,2.942,9.368,10,9.163,16.418c-0.199,6.221-4.058,11.377-10.866,14.519
						C199.161,187.356,199.109,187.367,199.057,187.367z M187.585,185.71c3.498,0,7.879,0.183,11.428,0.913
						c8.296-3.871,10.201-9.653,10.335-13.83c0.198-6.163-3.578-12.936-8.782-15.755c-3.065-1.662-6.503-1.903-9.945-0.699
						c-4.741,1.657-9.331,6.074-11.42,10.99c-3.256,7.663-2.313,14.927,2.395,18.555C182.178,185.847,184.549,185.71,187.585,185.71
						z"/>
				</g>
				<path style="fill:#FFFFFF;" d="M181.104,186.318c0,0,9.601-0.686,16.117,0.686c15.602-7.201,9.773-23.318,1.543-27.775
					c-8.23-4.458-17.145,2.743-20.06,9.601C175.789,175.688,176.303,182.718,181.104,186.318z"/>
				<g>
					<path style="fill:#B4715A;" d="M212.571,175.333c0.603-10.565-4.156-23.693-16.259-24.494
						c-6.249-0.193-13.231,4.151-15.829,9.836c0.619-2.143,2.185-3.887,3.741-5.432c4.792-4.729,12.526-6.832,18.587-3.265
						C211.031,156.394,213.453,166.707,212.571,175.333L212.571,175.333z"/>
				</g>
				<g>
					<defs>
						<path id="SVGID_00000058569143600073652550000013362683761592296840_" d="M181.483,186.256c0,0,10.469-0.748,17.573,0.748
							c17.013-7.852,10.656-25.425,1.683-30.286c-8.974-4.861-18.695,2.991-21.873,10.469
							C175.688,174.665,176.249,182.33,181.483,186.256z"/>
					</defs>
					<clipPath id="SVGID_00000026129526631449671190000010940011103861500036_">
						<use xlink:href="#SVGID_00000058569143600073652550000013362683761592296840_"  style="overflow:visible;"/>
					</clipPath>
					<g style="clip-path:url(#SVGID_00000026129526631449671190000010940011103861500036_);">
						<g>
							<g>
								<path style="fill:#004FA2;" d="M203.066,176.218c-0.773,6.535-6.697,11.206-13.232,10.433
									c-6.535-0.773-11.206-6.697-10.433-13.232c0.773-6.535,6.697-11.206,13.232-10.433
									C199.168,163.759,203.839,169.683,203.066,176.218z"/>
								<path style="fill:#639BD2;" d="M201.472,176.03c-0.669,5.655-5.795,9.697-11.45,9.028c-5.655-0.669-9.697-5.795-9.028-11.45
									c0.669-5.655,5.795-9.697,11.45-9.028C198.099,165.249,202.141,170.375,201.472,176.03z"/>
								<path style="fill:#002459;" d="M197.256,175.531c-0.393,3.326-3.409,5.704-6.735,5.311
									c-3.326-0.393-5.704-3.409-5.311-6.735c0.393-3.326,3.409-5.704,6.736-5.311
									C195.272,169.189,197.65,172.205,197.256,175.531z"/>
							</g>
							<path style="fill:#FFFFFF;" d="M189.132,170.039c-0.137,1.155-1.183,1.98-2.338,1.843c-1.155-0.137-1.98-1.183-1.843-2.338
								c0.136-1.154,1.183-1.98,2.338-1.843C188.444,167.838,189.269,168.885,189.132,170.039z"/>
							<path style="fill:#FFFFFF;" d="M186.167,174.38c-0.081,0.684-0.701,1.173-1.385,1.093c-0.684-0.081-1.173-0.701-1.093-1.386
								c0.081-0.684,0.701-1.173,1.385-1.092C185.759,173.076,186.248,173.696,186.167,174.38z"/>
							<path style="fill:#6C86C3;" d="M199.91,174.831c-0.067-0.387-1.418-0.128-1.481,0.128c-0.652,2.636-1.737,5.015-4.259,6.1
								c-1.177,0.506-2.435,0.851-3.752,0.773c-1.242-0.074-2.473-0.45-3.528-1.078c-1.216-0.724-2.208-1.77-2.79-2.999
								c-0.105-0.223-0.473-0.074-0.583,0.048c-0.973,1.081,0.218,2.997,0.971,3.861c3.742,4.295,11.467,3.287,14.277-1.002
								C199.692,179.246,200.269,176.899,199.91,174.831z"/>
						</g>
					</g>
				</g>
			</g>
			<path style="fill:#B4715A;" d="M175.494,188.984c4.902-2.345,10.641-3.157,16.033-2.979c5.459,0.18,10.907,1.475,15.842,3.824
				c2.773,1.32,5.419,2.969,7.706,5.024c0.103,0.093,0.188,0.419-0.037,0.255c-4.373-3.176-9.11-5.646-14.375-6.965
				c-5.186-1.3-10.626-1.546-15.906-0.692c-2.979,0.482-5.805,1.394-8.628,2.438C175.798,190.01,175.169,189.14,175.494,188.984z"/>
		</g>
		<g>
			<path style="fill:#FDD1AB;" d="M151.844,250.62c-0.008,0.005-0.016,0.01-0.025,0.015c-0.005,0.003-0.006,0.004-0.009,0.006
				c-0.01,0.009-0.02,0.018-0.03,0.027c-0.025,0.026-0.048,0.053-0.07,0.081c-0.001,0.003,0.001-0.001-0.001,0.003
				c-0.008,0.016-0.018,0.03-0.027,0.046c-0.009,0.017-0.032,0.072-0.035,0.075c-0.009,0.027-0.018,0.055-0.025,0.083
				c-0.009,0.036-0.014,0.073-0.02,0.11c0,0.002,0,0,0,0.002c0,0.003,0,0.003,0,0.008c0,0.017-0.002,0.034-0.002,0.051
				c-0.001,0.042,0,0.084,0.004,0.126c0.001,0.018,0.004,0.035,0.005,0.052c0.005,0.054,0.003,0.019,0.001,0.013
				c0.016,0.083,0.037,0.163,0.066,0.242c0.008,0.023,0.018,0.045,0.027,0.068c0.001,0.004,0.001,0.002,0.001,0.004
				c0.001,0.002,0.001,0.001,0.003,0.005c0.018,0.037,0.037,0.074,0.058,0.11c0.024,0.041,0.05,0.081,0.078,0.12
				c0.012,0.016,0.024,0.032,0.036,0.048c0.007,0.009,0.008,0.011,0.01,0.014c0.001,0.001,0.001,0.001,0.006,0.006
				c0.063,0.07,0.13,0.137,0.204,0.196c0.015,0.012,0.03,0.023,0.045,0.034c0.006,0.004,0.032,0.022,0.04,0.027
				c0.04,0.025,0.081,0.049,0.123,0.071c0.046,0.024,0.093,0.046,0.141,0.065c0.011,0.004,0.04,0.015,0.047,0.017
				c0.023,0.008,0.046,0.015,0.069,0.021c0.242,0.07,0.416,0.081,0.675,0.061c0.213-0.017,0.432-0.075,0.649-0.147
				c-0.149-0.43-0.477-0.73-0.875-0.975C152.629,251.068,152.22,250.871,151.844,250.62z"/>
			<path style="fill:#FDD1AB;" d="M144.981,247.664c-0.89-0.44-1.813-0.833-2.758-1.152c0.132,0.362,0.292,0.714,0.477,1.05
				c0.757,1.377,1.879,2.581,3.2,3.433c1.18,0.762,2.604,1.285,4.025,1.124c-0.158-0.648-0.555-1.23-0.999-1.716
				C147.842,249.219,146.408,248.369,144.981,247.664z"/>
			<path style="fill:#FDD1AB;" d="M151.012,253.055c-3.237-0.523-6.355-1.794-8.949-3.802c0.9,2.16,2.242,4.148,3.956,5.74
				c1.787,1.66,3.98,2.831,6.411,3.161c2.285,0.31,4.646,0.094,6.801-0.744c2.009-0.782,3.779-2.114,5.085-3.83
				c0.749-0.985,1.321-2.081,1.738-3.235c-1.237,0.712-2.544,1.303-3.896,1.764C158.596,253.323,154.729,253.655,151.012,253.055z"
				/>
			<path style="fill:#B46B3E;" d="M162.549,253.072c0.22-0.15,0.436-0.306,0.646-0.472c0.397-0.315,0.773-0.655,1.135-1.01
				c-3.272,1.361-6.803,2.029-10.35,1.994c-1.945-0.019-3.846-0.296-5.717-0.828c-1.238-0.352-2.529-0.805-3.711-1.418
				c0.445,0.488,0.94,0.925,1.478,1.312c0.59,0.299,1.202,0.565,1.848,0.79c1.885,0.657,3.864,0.948,5.856,0.976
				C156.607,254.456,159.767,254.137,162.549,253.072z"/>
		</g>
	</g>
</g>
</svg>
